<svg xmlns="http://www.w3.org/2000/svg" viewBox="0 0 800 520" width="800" height="520">
  <style>
    text{font-family:sans-serif}
    .label{font-size:9px;fill:#6B6B65;font-weight:600;letter-spacing:1px}
    .name{font-size:10px;fill:#2D2D2A;font-weight:700}
    .hex{font-size:8px;fill:#8A8A82;font-family:monospace}
    .role{font-size:7.5px;fill:#ABABAA}
    .title{font-size:14px;fill:#1B3A2A;font-weight:800;letter-spacing:-0.5px}
  </style>
  <!-- Background -->
  <rect width="800" height="520" rx="12" fill="#F6F1E7"/>
  <!-- Title -->
  <text x="32" y="38" class="title">LAPIG — Paleta de Cores / Color Palette</text>
  <text x="32" y="54" class="hex">v1.0.0 · Abril 2026</text>
  <!-- Primary -->
  <text x="32" y="90" class="label">PRIMÁRIAS / PRIMARY</text>
  <rect x="32" y="100" width="120" height="72" rx="8" fill="#429B4D"/>
  <text x="32" y="192" class="name">Cerrado Green</text>
  <text x="32" y="204" class="hex">#429B4D · RGB 66,155,77</text>
  <text x="32" y="216" class="role">Pantone 7731 C · CMYK 57,0,50,39</text>
  <rect x="172" y="100" width="120" height="72" rx="8" fill="#1B3A2A"/>
  <text x="172" y="192" class="name">Deep Forest</text>
  <text x="172" y="204" class="hex">#1B3A2A · RGB 27,58,42</text>
  <text x="172" y="216" class="role">Fundos escuros, títulos</text>
  <rect x="312" y="100" width="120" height="72" rx="8" fill="#F6F1E7" stroke="#D0D0CC" stroke-width="1"/>
  <text x="312" y="192" class="name">Cream</text>
  <text x="312" y="204" class="hex">#F6F1E7 · RGB 246,241,231</text>
  <text x="312" y="216" class="role">Fundo padrão claro</text>
  <!-- Secondary -->
  <text x="32" y="252" class="label">SECUNDÁRIAS / SECONDARY</text>
  <rect x="32" y="262" width="120" height="72" rx="8" fill="#2A9D8F"/>
  <text x="32" y="354" class="name">Tech Teal</text>
  <text x="32" y="366" class="hex">#2A9D8F · RGB 42,157,143</text>
  <text x="32" y="378" class="role">Pantone 7473 C · Acentos tech</text>
  <rect x="172" y="262" width="120" height="72" rx="8" fill="#C4933F"/>
  <text x="172" y="354" class="name">Cerrado Gold</text>
  <text x="172" y="366" class="hex">#C4933F · RGB 196,147,63</text>
  <text x="172" y="378" class="role">Pantone 7407 C · Dados, destaques</text>
  <rect x="312" y="262" width="120" height="72" rx="8" fill="#6B4C3B"/>
  <text x="312" y="354" class="name">Earth Brown</text>
  <text x="312" y="366" class="hex">#6B4C3B · RGB 107,76,59</text>
  <text x="312" y="378" class="role">Elementos terrosos</text>
  <!-- Neutrals -->
  <text x="480" y="90" class="label">NEUTROS / NEUTRALS</text>
  <rect x="480" y="100" width="56" height="42" rx="6" fill="#1A1A18"/>
  <text x="480" y="158" class="hex">#1A1A18</text>
  <rect x="546" y="100" width="56" height="42" rx="6" fill="#404040"/>
  <text x="546" y="158" class="hex">#404040</text>
  <rect x="612" y="100" width="56" height="42" rx="6" fill="#6B6B65"/>
  <text x="612" y="158" class="hex">#6B6B65</text>
  <rect x="678" y="100" width="56" height="42" rx="6" fill="#ABABAA"/>
  <text x="678" y="158" class="hex">#ABABAA</text>
  <rect x="480" y="175" width="56" height="42" rx="6" fill="#D0D0CC"/>
  <text x="480" y="233" class="hex">#D0D0CC</text>
  <rect x="546" y="175" width="56" height="42" rx="6" fill="#ECECEA"/>
  <text x="546" y="233" class="hex">#ECECEA</text>
  <rect x="612" y="175" width="56" height="42" rx="6" fill="#FEFEFE" stroke="#D0D0CC" stroke-width="0.5"/>
  <text x="612" y="233" class="hex">#FEFEFE</text>
  <!-- Alert -->
  <text x="480" y="268" class="label">ALERTA / ALERT</text>
  <rect x="480" y="278" width="56" height="42" rx="6" fill="#C4533A"/>
  <text x="480" y="336" class="hex">#C4533A</text>
  <!-- Gradients -->
  <text x="480" y="370" class="label">GRADIENTES / GRADIENTS</text>
  <defs>
    <linearGradient id="g1" x1="0" y1="0" x2="1" y2="1"><stop offset="0%" stop-color="#1B3A2A"/><stop offset="100%" stop-color="#429B4D"/></linearGradient>
    <linearGradient id="g2" x1="0" y1="0" x2="1" y2="1"><stop offset="0%" stop-color="#2A9D8F"/><stop offset="100%" stop-color="#429B4D"/></linearGradient>
    <linearGradient id="g3" x1="0" y1="0" x2="1" y2="1"><stop offset="0%" stop-color="#C4933F"/><stop offset="100%" stop-color="#6B4C3B"/></linearGradient>
  </defs>
  <rect x="480" y="380" width="90" height="36" rx="6" fill="url(#g1)"/>
  <text x="485" y="430" class="hex">Cerrado</text>
  <rect x="580" y="380" width="90" height="36" rx="6" fill="url(#g2)"/>
  <text x="585" y="430" class="hex">Satellite</text>
  <rect x="680" y="380" width="90" height="36" rx="6" fill="url(#g3)"/>
  <text x="685" y="430" class="hex">Golden Hour</text>
  <!-- 60-30-10 bar -->
  <text x="32" y="420" class="label">PROPORÇÃO DE USO / USAGE RATIO (60-30-10)</text>
  <rect x="32" y="430" width="450" height="28" rx="6" fill="#F6F1E7" stroke="#D0D0CC" stroke-width="0.5"/>
  <rect x="32" y="430" width="270" height="28" rx="6" fill="#F6F1E7" stroke="#D0D0CC" stroke-width="0.5"/>
  <rect x="302" y="430" width="135" height="28" rx="0" fill="#429B4D"/>
  <rect x="437" y="430" width="45" height="28" rx="0" ry="0" fill="#C4933F"/>
  <text x="167" y="448" class="hex" text-anchor="middle" fill="#6B6B65">60% Cream/White</text>
  <text x="370" y="448" class="hex" text-anchor="middle" fill="#FEFEFE">30% Green</text>
  <text x="460" y="448" class="hex" text-anchor="middle" fill="#FEFEFE">10%</text>
  <!-- Footer -->
  <text x="32" y="500" class="hex">LAPIG · IESA · UFG · lapig.iesa.ufg.br</text>
</svg>