<svg xmlns="http://www.w3.org/2000/svg" viewBox="0 0 120 138" width="120" height="138">
  <!-- Hexágono — moldura para foto, ícone de título ou recorte de imagem -->
  <!-- NÃO usar como background/pattern de tile. Uso exclusivo: molduras pontuais. -->
  <polygon points="60,3 114,33 114,105 60,135 6,105 6,33"
    fill="none" stroke="#429B4D" stroke-width="2.5" stroke-linejoin="round"/>
  <!-- Guia de recorte interno (clip-path reference) -->
  <polygon points="60,8 110,36 110,102 60,130 10,102 10,36"
    fill="none" stroke="#429B4D" stroke-width="0.5" opacity="0.2" stroke-dasharray="4,3"/>
  <!-- Globo central (fiel ao logo oficial) -->
  <circle cx="60" cy="65" r="22" fill="#FEFEFE"/>
  <circle cx="60" cy="65" r="22" fill="none" stroke="#373435" stroke-width="0.8"/>
  <!-- América do Sul -->
  <path d="M54,65 Q53,61 54,57 Q55,54 57,52 L58,52 Q60,54 60,57 Q61,60 60,63 Q59,66 58,69 Q57,73 55,75 Q54,77 53,76 L52,75 Q52,72 53,68 Q53,66 54,65 Z" fill="#429B4D"/>
  <!-- América do Norte -->
  <path d="M48,51 Q46,49 45,47 Q44,44 46,43 Q49,42 52,43 Q55,45 56,47 Q57,49 55,50 Q53,51 50,51 Z" fill="#429B4D"/>
  <!-- América Central -->
  <path d="M52,52 Q53,52 54,54 Q53,55 52,55 Q51,54 52,52 Z" fill="#429B4D"/>
  <!-- Europa -->
  <path d="M68,49 Q69,48 71,49 Q72,51 72,53 Q71,55 70,55 Q68,54 68,52 Z" fill="#429B4D"/>
  <!-- África -->
  <path d="M70,56 Q71,58 71,61 Q71,64 70,67 Q69,70 67,71 Q66,71 66,68 Q67,65 67,62 Q68,59 70,56 Z" fill="#429B4D"/>
</svg>