<svg xmlns="http://www.w3.org/2000/svg" viewBox="0 0 120 138" width="120" height="138">
  <!-- Hexágono — moldura para foto, ícone de título ou recorte de imagem -->
  <!-- NÃO usar como background. Para ícone do globo, usar lapig-icone.svg -->
  <path d="M 53,6.9 Q 60,3 67,6.9 L 107,29.1 Q 114,33 114,41 L 114,97 Q 114,105 107,108.9 L 67,131.1 Q 60,135 53,131.1 L 13,108.9 Q 6,105 6,97 L 6,41 Q 6,33 13,29.1 Z"
    fill="none" stroke="#429B4D" stroke-width="2.5"/>
  <!-- Guia de recorte interno (clip-path reference) -->
  <path d="M 54.8,10.9 Q 60,8 65.2,10.9 L 104.8,33.1 Q 110,36 110,42 L 110,96 Q 110,102 104.8,104.9 L 65.2,127.1 Q 60,130 54.8,127.1 L 15.2,104.9 Q 10,102 10,96 L 10,42 Q 10,36 15.2,33.1 Z"
    fill="none" stroke="#429B4D" stroke-width="0.5" opacity="0.2" stroke-dasharray="4,3"/>
</svg>