<?xml version="1.0" encoding="UTF-8"?>
<!DOCTYPE svg PUBLIC "-//W3C//DTD SVG 1.1//EN" "http://www.w3.org/Graphics/SVG/1.1/DTD/svg11.dtd">
<!-- Creator: CorelDRAW X8 -->
<svg xmlns="http://www.w3.org/2000/svg" xml:space="preserve" width="210mm" height="297mm" version="1.1" style="shape-rendering:geometricPrecision; text-rendering:geometricPrecision; image-rendering:optimizeQuality; fill-rule:evenodd; clip-rule:evenodd"
viewBox="0 0 21000 29700"
 xmlns:xlink="http://www.w3.org/1999/xlink">
 <defs>
  <style type="text/css">
   <![CDATA[
    .fil4 {fill:#FEFEFE}
    .fil3 {fill:#373435}
    .fil1 {fill:#429B4D}
    .fil0 {fill:#549151}
    .fil2 {fill:#F0F0F1;fill-rule:nonzero}
   ]]>
  </style>
 </defs>
 <g id="Camada_x0020_1">
  <metadata id="CorelCorpID_0Corel-Layer"/>
  <polygon class="fil0" points="3312,13513 18988,13513 18988,14261 2555,14261 "/>
  <polygon class="fil1" points="2508,13511 3184,13511 2428,14259 1752,14259 "/>
  <g id="_1480037792">
   <path class="fil2" d="M3492 13648l73 0 0 350 135 0 0 60 -208 0 0 -410zm410 264c-1,0 -3,0 -6,-1 -8,0 -15,-1 -20,-1 -26,0 -46,5 -59,14 -13,10 -19,24 -19,43 0,14 4,25 12,33 8,8 19,12 33,12 20,0 35,-6 45,-19 9,-13 14,-34 14,-61l0 -20zm69 -34l0 120c0,12 0,23 1,33 0,9 1,18 2,27l-66 0 -4 -38c-11,15 -23,26 -38,33 -14,8 -30,11 -48,11 -26,0 -47,-8 -63,-25 -17,-17 -25,-40 -25,-67 0,-34 13,-59 37,-77 24,-17 60,-26 106,-26 6,0 11,0 15,0 5,0 9,0 14,0l0 -13c0,-18 -5,-32 -16,-42 -10,-9 -25,-14 -45,-14 -14,0 -28,2 -41,7 -12,5 -24,12 -35,21l-5 -57c16,-7 32,-13 48,-17 17,-4 33,-6 48,-6 42,0 72,10 89,28 17,19 26,53 26,102zm145 44c0,28 5,50 14,65 10,15 23,22 40,22 18,0 31,-8 40,-25 10,-18 14,-43 14,-77 0,-34 -4,-60 -14,-77 -9,-18 -22,-26 -40,-26 -17,0 -30,7 -40,23 -9,15 -14,36 -14,64l0 31zm-70 -306l70 0 0 180c10,-17 20,-29 33,-36 12,-8 26,-12 44,-12 34,0 61,14 79,41 18,26 27,66 27,117 0,51 -9,90 -27,118 -19,27 -45,40 -79,40 -18,0 -33,-4 -46,-12 -13,-9 -25,-22 -34,-40 0,6 0,12 -1,19 0,6 -1,15 -2,27l-64 0 0 -442zm428 185c-18,0 -32,9 -42,28 -9,18 -14,44 -14,78 0,33 5,59 14,77 10,18 24,27 42,27 19,0 33,-9 42,-27 10,-17 15,-43 15,-77 0,-34 -5,-60 -15,-78 -10,-19 -24,-28 -42,-28zm0 -53c42,0 74,14 97,41 23,27 34,66 34,117 0,51 -11,90 -34,117 -23,27 -55,41 -97,41 -42,0 -74,-14 -97,-41 -22,-28 -34,-66 -34,-117 0,-51 12,-89 34,-117 23,-27 55,-41 97,-41zm346 1l0 67c-1,0 -4,0 -8,-1 -4,0 -8,-1 -10,-1 -22,0 -38,7 -49,21 -11,14 -16,36 -16,65l0 158 -70 0 0 -233c0,-14 -1,-26 -1,-38 -1,-11 -1,-22 -2,-32l64 -1 0 2c2,19 2,33 2,42l0 9c8,-19 19,-34 32,-44 14,-9 30,-14 49,-14 0,0 0,0 0,0 3,0 6,0 9,0zm187 163c-2,0 -3,0 -6,-1 -8,0 -15,-1 -20,-1 -26,0 -46,5 -59,14 -13,10 -19,24 -19,43 0,14 4,25 12,33 8,8 19,12 33,12 20,0 35,-6 44,-19 10,-13 15,-34 15,-61l0 -20zm69 -34l0 120c0,12 0,23 1,33 0,9 1,18 2,27l-66 0 -4 -38c-11,15 -24,26 -38,33 -14,8 -30,11 -48,11 -26,0 -47,-8 -64,-25 -16,-17 -24,-40 -24,-67 0,-34 12,-59 37,-77 24,-17 59,-26 106,-26 6,0 11,0 15,0 5,0 9,0 14,0l0 -13c0,-18 -6,-32 -16,-42 -10,-9 -25,-14 -45,-14 -14,0 -28,2 -41,7 -13,5 -25,12 -36,21l-4 -57c16,-7 32,-13 48,-17 16,-4 32,-6 48,-6 42,0 72,10 89,28 17,19 26,53 26,102zm154 -207l0 84 59 0 0 51 -59 0 0 147c0,23 3,38 7,45 5,7 14,10 27,10 5,0 9,0 13,-1 5,-1 10,-2 15,-3l0 52c-9,2 -18,4 -26,5 -8,1 -16,2 -24,2 -30,0 -52,-8 -64,-22 -12,-14 -18,-43 -18,-87l0 -148 -49 0 0 -51 49 0 0 -63 70 -21zm224 130c-18,0 -32,9 -41,28 -10,18 -15,44 -15,78 0,33 5,59 15,77 9,18 23,27 41,27 19,0 33,-9 42,-27 10,-17 15,-43 15,-77 0,-34 -5,-60 -15,-78 -10,-19 -23,-28 -42,-28zm0 -53c42,0 74,14 97,41 23,27 34,66 34,117 0,51 -11,90 -34,117 -23,27 -55,41 -97,41 -42,0 -74,-14 -97,-41 -22,-28 -34,-66 -34,-117 0,-51 12,-89 34,-117 23,-27 55,-41 97,-41zm15 -136l64 0 -86 104 -36 0 58 -104zm331 137l0 67c-1,0 -4,0 -8,-1 -4,0 -8,-1 -10,-1 -22,0 -38,7 -49,21 -11,14 -16,36 -16,65l0 158 -70 0 0 -233c0,-14 -1,-26 -1,-38 -1,-11 -1,-22 -2,-32l64 -1 0 2c2,19 2,33 2,42l0 9c8,-19 19,-34 32,-44 14,-9 30,-14 49,-14 0,0 0,0 0,0 3,0 6,0 9,0zm39 6l71 0 0 303 -71 0 0 -303zm-1 -127l74 0 0 69 -74 0 0 -69zm263 173c-18,0 -32,9 -42,28 -10,18 -14,44 -14,78 0,33 4,59 14,77 10,18 24,27 42,27 19,0 33,-9 42,-27 10,-17 14,-43 14,-77 0,-34 -4,-60 -14,-78 -10,-19 -24,-28 -42,-28zm0 -53c42,0 74,14 97,41 23,27 34,66 34,117 0,51 -11,90 -34,117 -23,27 -55,41 -97,41 -42,0 -74,-14 -97,-41 -23,-28 -34,-66 -34,-117 0,-51 11,-89 34,-117 23,-27 55,-41 97,-41zm509 143c0,-28 -5,-49 -14,-64 -10,-16 -23,-23 -40,-23 -18,0 -32,8 -41,26 -9,17 -13,43 -13,77 0,34 4,59 13,77 9,17 23,25 41,25 17,0 30,-7 40,-22 9,-16 14,-37 14,-65l0 -31zm0 -275l70 0 0 442 -64 0c-2,-11 -2,-19 -3,-26 0,-7 0,-13 0,-20 -10,18 -21,32 -34,40 -13,8 -29,12 -47,12 -33,0 -59,-13 -77,-40 -19,-27 -28,-66 -28,-117 0,-52 9,-91 27,-118 18,-27 45,-41 79,-41 17,0 32,4 44,12 12,7 23,19 33,36l0 -180zm372 310l-170 0c1,28 9,49 22,64 14,14 33,21 58,21 12,0 25,-2 37,-5 13,-4 25,-9 37,-17l0 55c-13,7 -27,12 -41,15 -14,3 -28,5 -44,5 -45,0 -79,-14 -104,-41 -24,-27 -36,-66 -36,-116 0,-49 11,-88 34,-116 22,-28 53,-43 93,-43 34,0 62,14 83,41 21,28 31,65 31,111 0,4 0,8 0,12 0,5 0,9 0,14zm-66 -44l0 -5c0,-25 -5,-45 -13,-58 -8,-13 -20,-20 -37,-20 -17,0 -30,7 -39,21 -9,13 -14,34 -16,62l105 0zm356 -178l0 136 29 0c24,0 41,-5 51,-16 10,-10 15,-28 15,-53 0,-24 -5,-41 -15,-51 -11,-10 -30,-16 -56,-16l-24 0zm-74 -56l94 0c51,0 89,10 113,30 24,20 36,51 36,94 0,42 -12,74 -36,94 -24,21 -61,31 -110,31l-23 0 0 161 -74 0 0 -410zm439 101l0 67c-1,0 -4,0 -8,-1 -4,0 -8,-1 -10,-1 -22,0 -38,7 -49,21 -11,14 -16,36 -16,65l0 158 -70 0 0 -233c0,-14 -1,-26 -1,-38 -1,-11 -1,-22 -2,-32l64 -1 0 2c2,19 2,33 2,42l0 9c8,-19 19,-34 32,-44 14,-9 30,-14 49,-14 0,0 0,0 0,0 3,0 6,0 9,0zm154 52c-18,0 -32,9 -42,28 -9,18 -14,44 -14,78 0,33 5,59 14,77 10,18 24,27 42,27 19,0 33,-9 42,-27 10,-17 15,-43 15,-77 0,-34 -5,-60 -15,-78 -10,-19 -24,-28 -42,-28zm0 -53c42,0 74,14 97,41 23,27 34,66 34,117 0,51 -11,90 -34,117 -23,27 -55,41 -97,41 -42,0 -74,-14 -97,-41 -22,-28 -34,-66 -34,-117 0,-51 12,-89 34,-117 23,-27 55,-41 97,-41zm382 13l-4 58c-8,-5 -16,-8 -25,-10 -9,-3 -18,-4 -27,-4 -24,0 -43,8 -56,25 -13,17 -19,41 -19,72 0,34 6,60 19,78 14,18 33,27 57,27 10,0 19,-1 29,-4 9,-2 18,-6 27,-11l3 58c-12,5 -25,8 -37,10 -13,3 -26,4 -40,4 -41,0 -73,-14 -97,-42 -24,-29 -36,-67 -36,-114 0,-51 12,-90 37,-118 24,-28 59,-42 102,-42 11,0 21,1 32,4 12,2 23,5 35,9zm273 165l-169 0c1,28 8,49 22,64 13,14 33,21 57,21 13,0 26,-2 38,-5 12,-4 24,-9 36,-17l0 55c-13,7 -26,12 -40,15 -14,3 -29,5 -44,5 -45,0 -80,-14 -104,-41 -25,-27 -37,-66 -37,-116 0,-49 12,-88 34,-116 23,-28 54,-43 93,-43 35,0 62,14 83,41 21,28 32,65 32,111 0,4 0,8 0,12 0,5 0,9 -1,14zm-66 -44l0 -5c0,-25 -4,-45 -12,-58 -9,-13 -21,-20 -37,-20 -17,0 -30,7 -39,21 -9,13 -15,34 -16,62l104 0zm288 -122l-2 57c-10,-5 -21,-8 -31,-11 -10,-2 -21,-3 -31,-3 -15,0 -26,2 -33,8 -8,5 -12,12 -12,22 0,8 3,15 8,21 6,6 19,14 41,24 31,14 52,28 62,41 10,13 15,30 15,50 0,29 -10,52 -30,70 -21,17 -48,25 -82,25 -13,0 -27,-1 -40,-3 -14,-3 -28,-7 -41,-12l3 -61c12,7 25,13 39,17 14,4 27,6 40,6 15,0 27,-3 35,-9 9,-6 13,-14 13,-24 0,-12 -14,-25 -43,-38l-4 -3c-31,-14 -52,-28 -64,-42 -11,-14 -17,-32 -17,-53 0,-27 10,-50 28,-67 19,-18 44,-26 74,-26 13,0 25,1 37,3 13,1 24,4 35,8zm238 0l-3 57c-10,-5 -20,-8 -30,-11 -10,-2 -21,-3 -32,-3 -14,0 -25,2 -33,8 -8,5 -11,12 -11,22 0,8 2,15 8,21 5,6 19,14 40,24 32,14 52,28 62,41 10,13 16,30 16,50 0,29 -11,52 -31,70 -20,17 -47,25 -81,25 -14,0 -27,-1 -41,-3 -14,-3 -27,-7 -40,-12l2 -61c13,7 26,13 40,17 13,4 27,6 40,6 15,0 26,-3 35,-9 8,-6 12,-14 12,-24 0,-12 -14,-25 -42,-38l-5 -3c-31,-14 -52,-28 -63,-42 -12,-14 -17,-32 -17,-53 0,-27 9,-50 28,-67 19,-18 43,-26 73,-26 13,0 26,1 38,3 12,1 24,4 35,8zm223 152c-1,0 -3,0 -6,-1 -8,0 -14,-1 -19,-1 -27,0 -46,5 -59,14 -13,10 -20,24 -20,43 0,14 4,25 12,33 8,8 19,12 34,12 20,0 35,-6 44,-19 10,-13 14,-34 14,-61l0 -20zm69 -34l0 120c0,12 1,23 1,33 1,9 2,18 3,27l-66 0 -4 -38c-11,15 -24,26 -38,33 -14,8 -30,11 -48,11 -26,0 -48,-8 -64,-25 -16,-17 -24,-40 -24,-67 0,-34 12,-59 36,-77 25,-17 60,-26 106,-26 6,0 11,0 16,0 4,0 9,0 13,0l0 -13c0,-18 -5,-32 -15,-42 -11,-9 -26,-14 -45,-14 -15,0 -28,2 -41,7 -13,5 -25,12 -36,21l-5 -57c16,-7 33,-13 49,-17 16,-4 32,-6 48,-6 42,0 72,10 89,28 17,19 25,53 25,102zm295 -81c8,-16 20,-28 33,-37 14,-8 30,-12 49,-12 26,0 46,9 60,26 14,17 21,42 21,75l0 209 -70 0 0 -195c0,-19 -3,-33 -10,-41 -6,-9 -16,-13 -30,-13 -14,0 -25,6 -34,19 -8,13 -12,30 -12,53l0 177 -70 0 0 -195c0,-19 -4,-33 -10,-41 -6,-9 -16,-13 -29,-13 -15,0 -26,6 -35,19 -8,13 -12,30 -12,53l0 177 -70 0 0 -233c0,-14 -1,-26 -1,-38 -1,-11 -1,-22 -2,-32l64 0c0,2 1,6 1,12 1,14 2,25 2,33 7,-16 17,-29 31,-38 14,-9 30,-14 47,-14 18,0 34,4 47,13 13,8 23,20 30,36zm462 129l-170 0c2,28 9,49 23,64 13,14 32,21 57,21 13,0 25,-2 38,-5 12,-4 24,-9 36,-17l0 55c-13,7 -27,12 -40,15 -14,3 -29,5 -45,5 -44,0 -79,-14 -103,-41 -25,-27 -37,-66 -37,-116 0,-49 11,-88 34,-116 23,-28 54,-43 93,-43 34,0 62,14 83,41 21,28 32,65 32,111 0,4 0,8 0,12 -1,5 -1,9 -1,14zm-66 -44l0 -5c0,-25 -4,-45 -13,-58 -8,-13 -20,-20 -36,-20 -17,0 -30,7 -39,21 -10,13 -15,34 -17,62l105 0zm360 -33l0 209 -71 0 0 -195c0,-19 -4,-33 -10,-41 -7,-9 -17,-13 -32,-13 -15,0 -26,6 -35,19 -9,12 -14,30 -14,52l0 1 0 177 -71 0 0 -233c0,-14 0,-26 0,-38 -1,-11 -2,-22 -2,-32l64 0c0,2 0,6 1,12 1,14 2,25 2,33 7,-17 18,-29 33,-38 15,-9 31,-14 50,-14 27,0 48,9 63,26 14,17 22,42 22,75zm153 -178l0 84 59 0 0 51 -59 0 0 147c0,23 3,38 8,45 5,7 14,10 26,10 5,0 9,0 14,-1 4,-1 9,-2 14,-3l0 52c-9,2 -17,4 -26,5 -8,1 -16,2 -24,2 -30,0 -51,-8 -64,-22 -12,-14 -18,-43 -18,-87l0 -148 -48 0 0 -51 48 0 0 -63 70 -21zm225 130c-18,0 -32,9 -42,28 -10,18 -15,44 -15,78 0,33 5,59 15,77 10,18 24,27 42,27 18,0 32,-9 42,-27 9,-17 14,-43 14,-77 0,-34 -5,-60 -15,-78 -9,-19 -23,-28 -41,-28zm-1 -53c42,0 75,14 97,41 23,27 34,66 34,117 0,51 -11,90 -34,117 -22,27 -55,41 -97,41 -41,0 -74,-14 -96,-41 -23,-28 -34,-66 -34,-117 0,-51 11,-89 34,-117 22,-27 54,-41 96,-41zm510 143c0,-28 -5,-49 -15,-64 -9,-16 -23,-23 -40,-23 -18,0 -31,8 -40,26 -9,17 -14,43 -14,77 0,34 5,59 14,77 9,17 22,25 40,25 17,0 31,-7 40,-22 10,-16 15,-37 15,-65l0 -31zm0 -275l70 0 0 442 -65 0c-1,-11 -2,-19 -2,-26 0,-7 0,-13 0,-20 -10,18 -22,32 -35,40 -13,8 -28,12 -46,12 -34,0 -60,-13 -78,-40 -18,-27 -27,-66 -27,-117 0,-52 9,-91 27,-118 18,-27 44,-41 79,-41 17,0 31,4 44,12 12,7 23,19 33,36l0 -180zm371 310l-169 0c1,28 8,49 22,64 13,14 33,21 57,21 13,0 26,-2 38,-5 12,-4 24,-9 36,-17l0 55c-13,7 -26,12 -40,15 -14,3 -29,5 -44,5 -45,0 -80,-14 -104,-41 -25,-27 -37,-66 -37,-116 0,-49 11,-88 34,-116 23,-28 54,-43 93,-43 35,0 62,14 83,41 21,28 32,65 32,111 0,4 0,8 0,12 0,5 0,9 -1,14zm-66 -44l0 -5c0,-25 -4,-45 -12,-58 -9,-13 -21,-20 -37,-20 -17,0 -30,7 -39,21 -9,13 -15,34 -17,62l105 0zm283 -234l74 0 0 410 -74 0 0 -410zm375 149c9,-16 20,-28 34,-37 13,-8 30,-12 49,-12 26,0 46,9 59,26 14,17 21,42 21,75l0 209 -70 0 0 -195c0,-19 -3,-33 -9,-41 -7,-9 -17,-13 -30,-13 -15,0 -26,6 -34,19 -8,13 -13,30 -13,53l0 177 -70 0 0 -195c0,-19 -3,-33 -9,-41 -7,-9 -17,-13 -30,-13 -14,0 -26,6 -34,19 -8,13 -13,30 -13,53l0 177 -70 0 0 -233c0,-14 0,-26 -1,-38 0,-11 -1,-22 -2,-32l64 0c1,2 1,6 2,12 1,14 1,25 1,33 7,-16 18,-29 32,-38 14,-9 29,-14 46,-14 19,0 34,4 48,13 13,8 23,20 29,36zm385 115c-1,0 -3,0 -6,-1 -8,0 -14,-1 -19,-1 -27,0 -46,5 -59,14 -13,10 -20,24 -20,43 0,14 4,25 12,33 8,8 19,12 33,12 21,0 35,-6 45,-19 9,-13 14,-34 14,-61l0 -20zm69 -34l0 120c0,12 1,23 1,33 1,9 2,18 3,27l-66 0 -5 -38c-11,15 -23,26 -37,33 -14,8 -30,11 -48,11 -27,0 -48,-8 -64,-25 -16,-17 -24,-40 -24,-67 0,-34 12,-59 36,-77 25,-17 60,-26 106,-26 6,0 11,0 16,0 4,0 9,0 13,0l0 -13c0,-18 -5,-32 -15,-42 -11,-9 -26,-14 -45,-14 -15,0 -29,2 -41,7 -13,5 -25,12 -36,21l-5 -57c16,-7 32,-13 49,-17 16,-4 32,-6 47,-6 43,0 72,10 90,28 17,19 25,53 25,102z"/>
   <path class="fil2" d="M12794 13888c0,-27 -4,-48 -14,-63 -10,-14 -23,-22 -40,-22 -18,0 -31,8 -40,25 -9,17 -14,41 -14,73 0,34 5,59 14,76 9,17 22,25 39,25 18,0 31,-7 41,-22 10,-14 14,-35 14,-62l0 -30zm3 -88c0,-10 1,-24 3,-44l0 -1 68 0c-1,7 -1,16 -1,27 -1,30 -2,47 -2,52l0 179c0,42 -3,73 -8,91 -5,18 -15,34 -28,48 -11,12 -26,21 -44,28 -18,6 -38,9 -61,9 -19,0 -37,-1 -53,-4 -17,-3 -32,-7 -47,-13l4 -60c14,7 27,13 42,17 14,4 29,6 44,6 28,0 49,-8 62,-24 13,-17 19,-43 19,-79 0,-5 0,-9 0,-12 0,-2 0,-5 -1,-7 -9,15 -20,27 -32,34 -12,7 -27,11 -45,11 -34,0 -61,-13 -78,-39 -18,-26 -27,-65 -27,-117 0,-49 9,-86 27,-113 19,-27 45,-41 78,-41 18,0 33,4 46,13 13,8 25,21 34,39zm369 126l-169 0c1,28 8,49 22,64 13,14 32,21 57,21 13,0 25,-2 38,-5 12,-4 24,-9 36,-17l0 55c-13,7 -26,12 -40,15 -14,3 -29,5 -44,5 -45,0 -80,-14 -104,-41 -25,-27 -37,-66 -37,-116 0,-49 11,-88 34,-116 23,-28 54,-43 93,-43 35,0 62,14 83,41 21,28 32,65 32,111 0,4 0,8 0,12 0,5 -1,9 -1,14zm-66 -44l0 -5c0,-25 -4,-45 -12,-58 -9,-13 -21,-20 -37,-20 -17,0 -30,7 -39,21 -9,13 -15,34 -17,62l105 0zm360 -33l0 209 -71 0 0 -195c0,-19 -3,-33 -10,-41 -7,-9 -17,-13 -31,-13 -15,0 -27,6 -36,19 -9,12 -14,30 -14,52l0 1 0 177 -70 0 0 -233c0,-14 -1,-26 -1,-38 -1,-11 -1,-22 -2,-32l64 0c0,2 0,6 1,12 1,14 2,25 2,33 7,-17 18,-29 33,-38 15,-9 31,-14 50,-14 27,0 48,9 63,26 15,17 22,42 22,75zm235 -89l-2 57c-11,-5 -21,-8 -31,-11 -10,-2 -21,-3 -32,-3 -14,0 -25,2 -33,8 -7,5 -11,12 -11,22 0,8 2,15 8,21 5,6 19,14 40,24 32,14 52,28 63,41 10,13 15,30 15,50 0,29 -11,52 -31,70 -20,17 -47,25 -81,25 -14,0 -27,-1 -41,-3 -14,-3 -27,-7 -40,-12l2 -61c13,7 26,13 40,17 13,4 27,6 40,6 15,0 26,-3 35,-9 8,-6 12,-14 12,-24 0,-12 -14,-25 -42,-38l-5 -3c-31,-14 -52,-28 -63,-42 -12,-14 -17,-32 -17,-53 0,-27 9,-50 28,-67 19,-18 43,-26 73,-26 13,0 26,1 38,3 12,1 24,4 35,8zm451 166l-169 0c1,28 9,49 22,64 13,14 33,21 57,21 13,0 26,-2 38,-5 12,-4 25,-9 36,-17l0 55c-13,7 -26,12 -40,15 -14,3 -29,5 -44,5 -45,0 -80,-14 -104,-41 -25,-27 -37,-66 -37,-116 0,-49 12,-88 34,-116 23,-28 54,-43 93,-43 35,0 62,14 83,41 21,28 32,65 32,111 0,4 0,8 0,12 0,5 0,9 -1,14zm-66 -44l0 -5c0,-25 -4,-45 -12,-58 -8,-13 -21,-20 -37,-20 -17,0 -30,7 -39,21 -9,13 -15,34 -16,62l104 0zm559 -224l-5 63c-13,-8 -27,-14 -41,-18 -14,-3 -30,-5 -47,-5 -40,0 -70,14 -91,41 -22,27 -33,66 -33,115 0,48 10,86 30,113 20,27 47,40 82,40 10,0 18,-1 26,-2 7,-1 14,-3 21,-6l0 -114 -60 0 0 -57 130 0 0 214c-16,7 -33,13 -53,16 -19,4 -40,6 -62,6 -61,0 -109,-18 -142,-54 -34,-36 -50,-87 -50,-153 0,-68 17,-121 52,-159 36,-38 84,-57 147,-57 17,0 33,2 49,4 16,3 32,7 47,13zm308 268l-170 0c1,28 9,49 22,64 14,14 33,21 58,21 12,0 25,-2 37,-5 13,-4 25,-9 37,-17l0 55c-14,7 -27,12 -41,15 -14,3 -29,5 -44,5 -45,0 -80,-14 -104,-41 -24,-27 -37,-66 -37,-116 0,-49 12,-88 34,-116 23,-28 54,-43 93,-43 35,0 63,14 84,41 21,28 31,65 31,111 0,4 0,8 0,12 0,5 0,9 0,14zm-67 -44l0 -5c0,-25 -4,-45 -12,-58 -8,-13 -21,-20 -37,-20 -17,0 -30,7 -39,21 -9,13 -14,34 -16,62l104 0zm242 -81c-18,0 -32,9 -41,28 -10,18 -15,44 -15,78 0,33 5,59 15,77 9,18 23,27 41,27 19,0 33,-9 42,-27 10,-17 15,-43 15,-77 0,-34 -5,-60 -15,-78 -10,-19 -23,-28 -42,-28zm0 -53c42,0 74,14 97,41 23,27 34,66 34,117 0,51 -11,90 -34,117 -23,27 -55,41 -97,41 -42,0 -74,-14 -97,-41 -22,-28 -34,-66 -34,-117 0,-51 12,-89 34,-117 23,-27 55,-41 97,-41zm263 269l0 171 -70 0 0 -355c0,-3 -1,-17 -2,-41 0,-16 -1,-28 -1,-37l67 0c1,10 2,19 2,26 0,7 1,14 1,19 9,-18 21,-31 34,-39 12,-9 28,-13 46,-13 34,0 60,14 79,41 18,27 27,66 27,117 0,52 -9,91 -28,118 -18,27 -44,40 -79,40 -17,0 -32,-3 -44,-11 -12,-7 -23,-20 -32,-36zm0 -96c0,29 5,50 14,65 9,15 23,23 40,23 18,0 31,-9 40,-26 9,-17 14,-43 14,-77 0,-34 -5,-60 -14,-77 -9,-17 -22,-26 -40,-26 -17,0 -31,8 -40,23 -9,15 -14,36 -14,64l0 31zm396 -172l0 67c0,0 -3,0 -7,-1 -5,0 -8,-1 -10,-1 -22,0 -39,7 -49,21 -11,14 -16,36 -16,65l0 158 -71 0 0 -233c0,-14 0,-26 0,-38 -1,-11 -2,-22 -2,-32l64 -1 0 2c1,19 2,33 2,42l0 9c8,-19 19,-34 32,-44 14,-9 30,-14 49,-14 0,0 0,0 0,0 3,0 6,0 8,0zm155 52c-18,0 -32,9 -42,28 -9,18 -14,44 -14,78 0,33 5,59 14,77 10,18 24,27 42,27 19,0 33,-9 42,-27 10,-17 15,-43 15,-77 0,-34 -5,-60 -15,-78 -10,-19 -24,-28 -42,-28zm0 -53c42,0 74,14 97,41 23,27 34,66 34,117 0,51 -11,90 -34,117 -23,27 -55,41 -97,41 -42,0 -74,-14 -97,-41 -22,-28 -34,-66 -34,-117 0,-51 12,-89 34,-117 23,-27 55,-41 97,-41zm382 13l-4 58c-8,-5 -16,-8 -25,-10 -9,-3 -18,-4 -27,-4 -24,0 -43,8 -56,25 -13,17 -20,41 -20,72 0,34 7,60 20,78 14,18 33,27 57,27 10,0 19,-1 28,-4 10,-2 19,-6 28,-11l3 58c-13,5 -25,8 -38,10 -12,3 -25,4 -39,4 -41,0 -73,-14 -97,-42 -24,-29 -36,-67 -36,-114 0,-51 12,-90 37,-118 24,-28 59,-42 102,-42 11,0 21,1 32,4 12,2 23,5 35,9zm273 165l-169 0c1,28 8,49 22,64 13,14 32,21 57,21 13,0 25,-2 38,-5 12,-4 24,-9 36,-17l0 55c-13,7 -26,12 -40,15 -14,3 -29,5 -44,5 -45,0 -80,-14 -104,-41 -25,-27 -37,-66 -37,-116 0,-49 11,-88 34,-116 23,-28 54,-43 93,-43 35,0 62,14 83,41 21,28 32,65 32,111 0,4 0,8 0,12 0,5 -1,9 -1,14zm-66 -44l0 -5c0,-25 -4,-45 -12,-58 -9,-13 -21,-20 -37,-20 -17,0 -30,7 -39,21 -9,13 -15,34 -17,62l105 0zm288 -122l-2 57c-10,-5 -21,-8 -31,-11 -10,-2 -21,-3 -32,-3 -14,0 -25,2 -32,8 -8,5 -12,12 -12,22 0,8 3,15 8,21 5,6 19,14 40,24 32,14 53,28 63,41 10,13 15,30 15,50 0,29 -10,52 -31,70 -20,17 -47,25 -81,25 -13,0 -27,-1 -40,-3 -14,-3 -28,-7 -41,-12l3 -61c12,7 25,13 39,17 14,4 27,6 40,6 15,0 27,-3 35,-9 8,-6 13,-14 13,-24 0,-12 -15,-25 -43,-38l-4 -3c-31,-14 -52,-28 -64,-42 -11,-14 -17,-32 -17,-53 0,-27 9,-50 28,-67 19,-18 44,-26 74,-26 13,0 25,1 37,3 12,1 24,4 35,8zm238 0l-3 57c-10,-5 -20,-8 -30,-11 -11,-2 -21,-3 -32,-3 -14,0 -25,2 -33,8 -8,5 -11,12 -11,22 0,8 2,15 8,21 5,6 18,14 40,24 31,14 52,28 62,41 10,13 15,30 15,50 0,29 -10,52 -30,70 -20,17 -47,25 -82,25 -13,0 -26,-1 -40,-3 -14,-3 -27,-7 -40,-12l2 -61c13,7 26,13 39,17 14,4 28,6 40,6 16,0 27,-3 36,-9 8,-6 12,-14 12,-24 0,-12 -14,-25 -42,-38l-5 -3c-31,-14 -52,-28 -63,-42 -12,-14 -18,-32 -18,-53 0,-27 10,-50 29,-67 19,-18 43,-26 73,-26 13,0 26,1 38,3 12,1 24,4 35,8zm223 152c-1,0 -3,0 -6,-1 -8,0 -14,-1 -19,-1 -27,0 -46,5 -59,14 -13,10 -20,24 -20,43 0,14 4,25 12,33 8,8 19,12 34,12 20,0 35,-6 44,-19 9,-13 14,-34 14,-61l0 -20zm69 -34l0 120c0,12 1,23 1,33 1,9 2,18 3,27l-66 0 -5 -38c-11,15 -23,26 -37,33 -14,8 -30,11 -48,11 -27,0 -48,-8 -64,-25 -16,-17 -24,-40 -24,-67 0,-34 12,-59 36,-77 25,-17 60,-26 106,-26 6,0 11,0 16,0 4,0 9,0 13,0l0 -13c0,-18 -5,-32 -15,-42 -11,-9 -26,-14 -45,-14 -15,0 -28,2 -41,7 -13,5 -25,12 -36,21l-5 -57c16,-7 32,-13 49,-17 16,-4 32,-6 47,-6 43,0 72,10 90,28 17,19 25,53 25,102zm295 -81c8,-16 19,-28 33,-37 14,-8 30,-12 49,-12 26,0 46,9 60,26 14,17 21,42 21,75l0 209 -70 0 0 -195c0,-19 -4,-33 -10,-41 -6,-9 -16,-13 -30,-13 -14,0 -25,6 -34,19 -8,13 -12,30 -12,53l0 177 -70 0 0 -195c0,-19 -4,-33 -10,-41 -6,-9 -16,-13 -29,-13 -15,0 -27,6 -35,19 -8,13 -12,30 -12,53l0 177 -71 0 0 -233c0,-14 0,-26 0,-38 -1,-11 -1,-22 -2,-32l64 0c0,2 0,6 1,12 1,14 2,25 2,33 7,-16 17,-29 31,-38 14,-9 30,-14 47,-14 18,0 34,4 47,13 13,8 23,20 30,36zm462 129l-170 0c2,28 9,49 23,64 13,14 32,21 57,21 13,0 25,-2 38,-5 12,-4 24,-9 36,-17l0 55c-13,7 -27,12 -41,15 -13,3 -28,5 -44,5 -44,0 -79,-14 -104,-41 -24,-27 -36,-66 -36,-116 0,-49 11,-88 34,-116 23,-28 54,-43 93,-43 34,0 62,14 83,41 21,28 32,65 32,111 0,4 0,8 -1,12 0,5 0,9 0,14zm-66 -44l0 -5c0,-25 -4,-45 -13,-58 -8,-13 -20,-20 -36,-20 -17,0 -30,7 -40,21 -9,13 -14,34 -16,62l105 0zm360 -33l0 209 -71 0 0 -195c0,-19 -4,-33 -10,-41 -7,-9 -17,-13 -32,-13 -15,0 -27,6 -35,19 -9,12 -14,30 -14,52l0 1 0 177 -71 0 0 -233c0,-14 0,-26 0,-38 -1,-11 -2,-22 -3,-32l65 0c0,2 0,6 1,12 1,14 2,25 2,33 7,-17 18,-29 33,-38 14,-9 31,-14 49,-14 28,0 49,9 64,26 14,17 22,42 22,75zm153 -178l0 84 59 0 0 51 -59 0 0 147c0,23 3,38 8,45 5,7 13,10 26,10 5,0 9,0 14,-1 4,-1 9,-2 14,-3l0 52c-9,2 -17,4 -26,5 -8,1 -16,2 -24,2 -30,0 -52,-8 -64,-22 -12,-14 -18,-43 -18,-87l0 -148 -49 0 0 -51 49 0 0 -63 70 -21zm225 130c-18,0 -32,9 -42,28 -10,18 -15,44 -15,78 0,33 5,59 15,77 10,18 24,27 42,27 18,0 32,-9 42,-27 9,-17 14,-43 14,-77 0,-34 -5,-60 -15,-78 -9,-19 -23,-28 -41,-28zm-1 -53c42,0 75,14 97,41 23,27 34,66 34,117 0,51 -11,90 -34,117 -22,27 -55,41 -97,41 -42,0 -74,-14 -96,-41 -23,-28 -34,-66 -34,-117 0,-51 11,-89 33,-117 23,-27 55,-41 97,-41z"/>
  </g>
  <path class="fil3" d="M3035 9965c67,0 100,34 100,102l0 1865c0,125 10,228 30,311 19,82 52,148 98,196 45,48 107,83 184,103 78,20 176,30 295,30l1846 0c67,0 101,35 101,103l0 458c0,69 -34,103 -101,103l-1874 0c-231,0 -427,-22 -588,-66 -161,-43 -293,-114 -395,-212 -101,-98 -176,-226 -223,-383 -47,-158 -71,-349 -71,-573l0 -1935c0,-68 35,-102 105,-102l493 0zm5046 0c116,0 213,24 292,72 79,48 157,143 233,283l1509 2808c15,32 19,57 12,77 -8,21 -30,31 -66,31l-580 0c-51,0 -86,-20 -105,-61l-323 -603 -2144 0 -314 603c-22,41 -56,61 -105,61l-593 0c-39,0 -63,-10 -71,-31 -7,-20 -3,-45 12,-77l1496 -2808c76,-140 150,-235 223,-283 73,-48 158,-72 255,-72l269 0zm-884 2065l1568 0 -725 -1369c-12,-22 -29,-33 -50,-33l-27 0c-21,0 -38,11 -50,33l-716 1369zm5723 -2065c15,0 28,0 42,0 2,14 4,28 7,43 17,269 144,545 261,727 124,191 312,379 495,485l21 20c27,19 100,57 154,82 -7,294 -83,517 -227,671 -152,162 -403,243 -753,243l-1887 0 0 897c0,69 -34,103 -101,103l-492 0c-70,0 -105,-34 -105,-103l0 -3028c0,-94 45,-140 137,-140l2448 0zm-1887 1654l1746 0c155,0 265,-34 328,-103 64,-68 96,-173 96,-313l0 -178c0,-140 -32,-244 -96,-313 -63,-68 -173,-102 -328,-102l-1687 0c-40,0 -59,18 -59,56l0 953zm3849 -162l0 1676c0,69 -33,103 -100,103l-493 0c-70,0 -105,-34 -105,-103l0 -1707c220,58 466,68 698,31zm3991 -1492c67,0 100,34 100,102l0 458c0,72 -33,108 -100,108l-2285 0c-118,0 -216,10 -294,30 -77,21 -139,55 -185,103 -45,48 -78,113 -98,194 -19,81 -29,184 -29,308l0 673c0,125 10,229 29,311 20,83 53,148 98,196 46,49 108,83 185,103 78,20 176,31 294,31l1505 0c79,0 137,-21 173,-63 37,-43 55,-117 55,-222l0 -379c0,-40 -18,-61 -55,-61l-1336 0c-67,0 -100,-36 -100,-107l0 -351c0,-71 33,-107 100,-107l1902 0c91,0 137,47 137,140l0 1089c0,262 -49,446 -146,554 -98,107 -237,161 -420,161l-1842 0c-231,0 -427,-22 -588,-66 -162,-43 -293,-114 -395,-212 -102,-98 -176,-226 -223,-383 -47,-158 -71,-349 -71,-573l0 -667c179,-80 347,-192 479,-325 35,-34 138,-136 164,-189 67,-56 175,-265 210,-353 65,-164 106,-325 122,-488 93,-10 194,-15 302,-15l2312 0z"/>
  <path class="fil4" d="M14242 8509c-66,25 -119,39 -177,65 -7,19 19,90 32,111 11,18 63,52 87,58 2,1 4,2 5,3 19,16 40,48 42,74 4,44 -13,21 -57,41 -114,51 -12,20 -100,62 -20,9 -9,3 -19,12 24,6 40,9 44,34 5,6 14,14 22,23 -8,23 -22,28 -39,47 -10,16 11,2 -15,16 -14,7 -8,3 -22,4 -56,3 -70,-7 -98,-40 -21,1 -61,13 -75,29 -19,23 0,58 -18,87 -21,36 -32,3 -36,66 -4,50 -13,40 -34,67l-49 55c-21,21 -30,30 -27,67 5,59 42,129 -30,137 -22,-16 -41,-46 -45,-78 0,-20 -13,-30 -21,-43 -20,-1 -106,-7 -114,7 -1,2 -3,4 -4,5l-5 11c-5,9 -1,0 -8,12 -75,14 -80,-31 -135,21 -9,47 0,114 0,164 13,7 20,10 31,20 3,2 12,9 14,12 11,12 5,3 14,19l46 6 20 -44 84 6c1,50 -27,45 -22,87 18,14 81,23 109,24 11,5 9,-12 22,16 16,37 -40,70 24,111 38,24 102,12 125,9 44,0 44,-28 107,-27 43,1 95,0 137,4 9,5 95,113 128,126 121,47 86,-17 153,100 12,21 36,69 52,80l281 90c14,162 -4,138 -62,232 -61,96 9,131 -96,198 -43,27 -81,54 -115,79 -1,103 -4,74 -56,135 -33,38 -256,268 -270,299 288,138 688,156 1010,50 207,-69 412,-188 562,-339 30,-30 121,-119 143,-164 -7,-25 -60,-109 -76,-139 -54,-98 -9,-62 -8,-167 0,-43 7,-180 -6,-211 -14,-34 -31,-21 -35,-70 -2,-35 5,-72 -7,-98 -20,-11 -52,-6 -76,-8 -17,-8 -52,-138 -150,-64 -21,15 -55,42 -79,46 -18,3 -46,2 -65,2 -103,1 -49,-36 -137,-160 -51,-72 -74,-29 -73,-156 0,-100 -13,-146 25,-205 58,-90 33,-60 113,-114 1,-25 -13,-89 61,-110 19,-5 54,-7 76,-10 67,-7 91,-81 157,-86 52,-3 108,2 160,1 18,12 8,-3 12,20l-6 53c6,13 168,64 192,64 11,-29 22,-54 24,-91l22 -28 -1 -11c-39,-35 -229,-151 -268,-159 -40,-7 -100,-10 -132,5l-4 50c-69,5 -60,2 -89,48 -16,26 -32,50 -48,78 -8,14 14,9 -25,16 -63,11 -84,-46 -130,-70l9 -140c54,-14 133,16 181,-16l-2 -59c-9,-4 -68,-43 -69,-72 48,-20 43,-8 89,-5 45,3 41,-10 78,-20 21,-17 63,-51 72,-72 -19,-22 -54,-47 -80,-63 -16,6 -14,36 -17,56l-9 50c-11,45 -109,23 -149,21 -10,-61 29,-66 5,-135 -11,-32 -35,-84 -39,-120 -53,-40 -243,-100 -325,-117 -145,-32 -244,-37 -403,-37 -19,27 -46,53 -68,76 -54,56 -27,19 -32,91 -89,5 -83,14 -125,-37 -22,-26 -56,-73 -88,-73z"/>
  <path class="fil0" d="M15787 10755c58,-49 151,-232 182,-308 110,-277 143,-544 84,-839 -27,-133 -69,-246 -126,-360 0,-2 -1,-7 -2,-5 -1,1 -2,-5 -3,-6 -5,-8 -6,-8 -11,-13l-22 28c-2,37 -13,62 -24,91 -24,0 -186,-51 -192,-64l6 -53c-4,-23 6,-8 -12,-20 -52,1 -108,-4 -160,-1 -66,5 -90,79 -157,86 -22,3 -57,5 -76,10 -74,21 -60,85 -61,110 -80,54 -55,24 -113,114 -38,59 -25,105 -25,205 -1,127 22,84 73,156 88,124 34,161 137,160 19,0 47,1 65,-2 24,-4 58,-31 79,-46 98,-74 133,56 150,64 24,2 56,-3 76,8 12,26 5,63 7,98 4,49 21,36 35,70 13,31 6,168 6,211 -1,105 -46,69 8,167 16,30 69,114 76,139zm-2573 -708c-7,-103 -18,-200 2,-303 34,0 56,7 97,6 33,-1 71,-7 105,-5 30,1 51,26 70,38 26,17 45,32 63,47l1 65c59,27 92,60 140,63 47,3 24,0 58,15l1 123c-48,19 -23,15 -54,51 -32,36 -21,148 -5,177 12,23 23,44 36,69 56,106 -5,100 120,193 18,14 47,33 60,45l-37 470 19 17c34,24 153,84 182,90 14,-31 237,-261 270,-299 52,-61 55,-32 56,-135 34,-25 72,-52 115,-79 105,-67 35,-102 96,-198 58,-94 76,-70 62,-232l-281 -90c-16,-11 -40,-59 -52,-80 -67,-117 -32,-53 -153,-100 -33,-13 -119,-121 -128,-126 -42,-4 -94,-3 -137,-4 -63,-1 -63,27 -107,27 -23,3 -87,15 -125,-9 -64,-41 -8,-74 -24,-111 -13,-28 -11,-11 -22,-16 -28,-1 -91,-10 -109,-24 -5,-42 23,-37 22,-87l-84 -6 -20 44 -46 -6c-9,-16 -3,-7 -14,-19 -2,-3 -11,-10 -14,-12 -11,-10 -18,-13 -31,-20 0,-50 -9,-117 0,-164 55,-52 60,-7 135,-21 7,-12 3,-3 8,-12l5 -11c1,-1 3,-3 4,-5 8,-14 94,-8 114,-7 8,13 21,23 21,43 4,32 23,62 45,78 72,-8 35,-78 30,-137 -3,-37 6,-46 27,-67l49 -55c21,-27 30,-17 34,-67 4,-63 15,-30 36,-66 18,-29 -1,-64 18,-87 14,-16 54,-28 75,-29 28,33 42,43 98,40 14,-1 8,3 22,-4 26,-14 5,0 15,-16 17,-19 31,-24 39,-47 -8,-9 -17,-17 -22,-23 -4,-25 -20,-28 -44,-34 10,-9 -1,-3 19,-12 88,-42 -14,-11 100,-62 44,-20 61,3 57,-41 -2,-26 -23,-58 -42,-74 -1,-1 -3,-2 -5,-3 -24,-6 -76,-40 -87,-58 -13,-21 -39,-92 -32,-111 -102,31 -284,156 -363,227 -110,97 -193,188 -273,314 -141,221 -274,600 -215,932zm1028 -1538c32,0 66,47 88,73 42,51 36,42 125,37 5,-72 -22,-35 32,-91 22,-23 49,-49 68,-76 -109,4 -211,31 -313,57zm1258 360c-37,10 -33,23 -78,20 -46,-3 -41,-15 -89,5 1,29 60,68 69,72l2 59c-48,32 -127,2 -181,16l-9 140c46,24 67,81 130,70 39,-7 17,-2 25,-16 16,-28 32,-52 48,-78 29,-46 20,-43 89,-48l4 -50c32,-15 92,-12 132,-5 39,8 229,124 268,159 -49,-74 -71,-137 -148,-228 -35,-41 -57,-66 -90,-99 -30,-31 -64,-69 -100,-89 -9,21 -51,55 -72,72zm-8 -135c-29,-33 -170,-119 -209,-128 4,36 28,88 39,120 24,69 -15,74 -5,135 40,2 138,24 149,-21l9 -51c3,-19 1,-49 17,-55z"/>
  <path class="fil4" d="M13214 10047c15,234 125,474 227,632 108,167 272,330 430,422l37 -470c-13,-12 -42,-31 -60,-45 -125,-93 -64,-87 -120,-193 -13,-25 -24,-46 -36,-69 -16,-29 -27,-141 5,-177 31,-36 6,-32 54,-51l-1 -123c-34,-15 -11,-12 -58,-15 -48,-3 -81,-36 -140,-63l-1 -65c-18,-15 -37,-30 -63,-47 -19,-12 -40,-37 -70,-38 -34,-2 -72,4 -105,5 -41,1 -63,-6 -97,-6 -20,103 -9,200 -2,303z"/>
 </g>
</svg>
