<?xml version="1.0" encoding="UTF-8"?>
<svg xmlns="http://www.w3.org/2000/svg" width="560" height="560" viewBox="0 0 560 560"><defs><clipPath id="clip"><circle cx="280" cy="280" r="276"></circle></clipPath><radialGradient id="sphere-shade" cx="35%" cy="30%" r="65%"><stop offset="0%" stop-color="#fff" stop-opacity="0.95"></stop><stop offset="60%" stop-color="#f4f4f2" stop-opacity="0.5"></stop><stop offset="100%" stop-color="#c8c8c0" stop-opacity="0.6"></stop></radialGradient><radialGradient id="sphere-hl" cx="28%" cy="22%" r="32%"><stop offset="0%" stop-color="#fff" stop-opacity="0.65"></stop><stop offset="100%" stop-color="#fff" stop-opacity="0"></stop></radialGradient></defs><circle cx="280" cy="280" r="276" fill="#f0f0ec"></circle><g clip-path="url(#clip)"><path d="M543.027,363.623L542.256,365.949L540.191,371.792L539.729,372.965L538.253,376.758L537.653,378.158L536.434,381.356L535.405,384.22L534.478,386.581L533.949,387.864L534.126,387.489L532.311,391.737L531.348,393.878L531.137,394.395L530.259,396.296L529.341,398.191L528.207,400.36L526.348,403.717L525.282,405.659L524.471,407.331L524.506,407.385L523.33,409.645L521.579,412.865L519.652,416.363L518.443,418.422L516.776,421.047L516.288,421.799L514.764,424.194L513.321,426.468L511.113,429.778L507.565,434.735L505.388,437.629L503.482,439.983L501.399,442.294L500.709,442.899L499.85,444.047L499.541,443.973L498.467,445.084L497.631,445.22L496.545,446.152L496.133,446.281L493.732,448.548L492.113,449.797L490.253,451.653L489.511,452.088L489.768,451.109L489.29,451.298L489.719,449.985L489.301,450.531L489.752,449.642L491.191,447.468L492.265,445.215L493.226,444.281L494.978,441.402L496.007,438.34L497.01,435.463L497.008,435.459L498.485,430.952L498.641,428.565L499.349,425.968L500.786,422.244L501.651,419.51L503.72,413.479L505.685,408.539L506.31,406.364L506.148,404.957L506.315,401.892L506.918,397.229L507.312,394.717L506.765,391.18L507.593,387.906L508.141,385.239L509.481,381.276L511.295,376.947L511.875,374.997L513.536,370.714L514.481,368.673L516.394,365.253L517.522,362.97L518.392,359.53L518.73,357.006L518.333,355.642L518.172,353.112L518.025,350.579L518.287,349.587L519.247,347.499L519.121,343.327L519,340.413L518.125,337.919L518.435,336.937L518.236,335.623L517.894,332.363L516.239,328.135L513.919,324.298L512.367,320.99L510.895,316.655L511.002,315.068L511.593,313.378L512.228,309.746L512.718,306.079L512.22,305.518L512.978,299.923L513.198,296.069L512.036,293.263L510.8,292.846L510.14,290.889L509.41,290.423L509.359,289.103L506.679,291.673L505.629,291.734L504.631,293.108L502.385,293.652L500.663,291.113L499.467,287.943L497.146,285.378L494.93,286.024L492.279,286.7L489.803,287.887L487.375,289.511L482.574,293.463L480.876,295.502L477.988,297.529L474.906,296.814L473.368,297.19L470.913,296.743L468.693,297.24L464.571,298.872L462.164,300.703L458.666,303.099L457.949,303.104L456.986,303.313L453.054,301.696L449.443,298.64L446.042,296.544L443.255,293.869L442.191,293.673L439.264,292.169L437.048,289.911L436.218,288.263L435.438,284.796L433.46,282.217L431.753,280.553L430.685,280.078L429.61,279.258L428.942,277.206L428.249,276.233L427.025,275.601L424.679,273.885L422.961,273.788L421.908,272.561L421.843,271.83L420.517,270.972L420.142,269.976L419.054,266.392L419.317,264.206L417.192,260.692L414.979,259.24L416.621,258.118L418.082,254.526L418.668,251.954L417.945,249.435L418.685,246.952L418.438,242.414L417.22,237.793L416.329,235.501L416.289,233.094L414.875,230.979L412.468,229.202L412.257,227.199L412.012,224.998L413.214,223.537L413.955,220.938L413.378,219.387L413.965,215.929L415.372,212.698L416.434,211.787L416.769,208.96L416.245,206.488L416.831,203.466L418.778,201.455L419.757,196.469L419.803,196.398L421.048,194.396L424.114,193.414L425.839,189.907L427.149,188.434L428.687,184.24L425.979,178.83L425.858,174.824L425.433,172.429L426.346,169.131L428.655,166.605L430.179,164.413L430.293,159.59L430.064,156.803L432.2,156.413L434.733,157.887L437.29,157.053L440.614,157.399L441.834,157.187L443.335,154.302L445.837,152.929L446.599,150.814L448.394,148.954L452.182,147.167L455.921,145.787L457.429,146.072L458.658,143.844L461.006,143.112L462.446,143.795L463.774,143.097L465.063,140.717L466.791,140.733L467.972,142.82L468.769,140.741L469.387,141.47L469.595,143.822L470.702,145.726L472.002,146.513L473.797,150.189L473.603,152.752L475.254,154.906L476.367,154.611L477.973,156.434L479.111,156.817L482.262,157.421L482.894,156.747L484.888,156.829L488.393,157.722L491.272,161.14L493.321,161.267L496.694,161.955L499.567,163.225L499.768,161.732L499.467,159.397L497.327,156.355L496.654,154.063L496.598,151.541L497.262,150.435L499.615,150.214L501.158,151.795L501.653,151.509L502.473,151.964L503.987,151.652L505.079,152.826L506.556,151.667L508.225,151.968L509.932,152.376L510.749,152.636L510.678,150.67L510.331,149.144L510.847,148.064L511.702,147.988L513.116,149.805L512.482,148.26L513.603,148.56L514.223,148.127L513.885,146.672L513.224,145.085L513.044,144.908L512.007,142.781L510.173,139.56L509.587,138.426L509.575,138.362L507.588,134.808L505.906,131.614L505.816,131.459L503.674,128.537L502.626,126.739L501.197,125.278L500.281,123.528L500.276,124.346L499.231,124.129L500.512,126.903L499.931,128.549L497.881,127.102L497.001,127.823L497.986,129.625L497.76,130.636L495.45,129.309L494.496,130.233L491.118,126.802L488.799,125.206L487.036,121.849L484.997,120.493L483.223,116.055L484.467,114.77L482.479,111.638L484.302,110.718L483.042,107.463L482.804,105.582L483.522,104.285L486.423,105.518L488.039,105.827L487.779,104.397L488.175,104.068L486.591,101.321L485.226,99.707L483.008,97.513L481.77,96.658L481.344,96.665L480.291,95.875L477.268,93.897L475.731,93.424L473.489,92.04L473.153,90.987L470.476,87.619L468.965,86.7L467.839,84.357L467.064,83.669L467.461,84.8L467.556,85.609L468.5,87.125L468.375,87.939L469.338,89.768L471.204,91.537L471.503,91.823L472.517,92.295L472.675,91.381L473.821,92.722L474.008,94.086L475.349,97.038L474.387,96.721L472.925,94.95L471.356,94.708L470.808,93.928L470.169,92.134L469.683,91.831L469.243,91.559L467.524,91.77L466.197,90.555L466.05,91.597L467.683,93.717L469.634,96.793L470.508,97.672L470.865,98.765L470.319,98.642L474.048,103.101L474.955,104.952L476.914,107.793L478.986,109.645L480.292,110.977L482.024,111.523L482.631,112.565L481.773,113.644L482.323,115.104L483.145,117.748L481.43,116.218L480.822,115.442L480.114,115.777L479.278,115.8L478.721,117.655L481.171,119.282L481.077,120.27L480.436,120.681L478.286,119.098L478.707,120.07L480.724,122.193L482.684,123.63L482.855,124.751L484.848,126.129L486.253,126.887L487.862,129.084L486.005,128.738L487.791,130.523L487.295,131.414L490.179,134.625L489.372,135.183L487.116,134.07L484.427,131.177L482.346,128.691L480.53,127.175L478.213,125.328L477.315,124.273L476.877,124.129L476.223,123.292L474.481,122.388L472.986,120.626L471.11,117.972L470.379,116.7L469.679,116.224L469.159,116.074L467.801,115.045L466.596,114.59L464.141,113.842L462.21,112.882L459.941,112.374L456.449,110.195L456.533,109.785L454.559,108.533L453.506,107.306L452.021,107.135L452.833,108.907L451.352,107.862L450.341,106.582L450.352,106.504L450.431,106.034L448.714,105.994L448.438,107.789L450.001,109.578L450.631,110.705L452.68,112.393L455.733,113.683L458.968,116.464L463.113,118.789L464.345,118.249L465.365,118.921L465.497,119.872L467.94,120.649L469.926,121.3L472.696,122.708L473.385,123.359L474.122,124.872L471.968,123.453L470.166,123.423L471.322,126.22L473.489,127.164L474.746,129.297L474.242,129.825L475.683,133.595L475.192,134.201L474.383,132.978L473.281,130.707L473.057,129.715L470.835,127.712L468.938,125.953L467.904,125.748L466.211,124.272L464.616,124.004L462.752,122.734L461.281,122.976L458.638,121.743L455.176,119.835L452.322,118.067L448.962,114.513L447.722,114.384L445.271,113.636L444.779,114.421L444.948,116.519L444.335,117.043L444.046,119.741L439.215,119.859L436.904,121.947L438.176,124.348L439.761,126.596L439.235,129.77L436.721,131.346L437.303,132.743L437.097,135.319L438,138.839L440.263,140.95L439.795,143.112L440.658,145.923L439.115,147.191L438.838,150.81L435.421,151.597L432.737,152.052L431.667,153.891L431.307,155.701L429.739,155.616L428.027,154.387L426.106,152.107L423.103,151.939L422.406,153.242L420.592,152.918L419.261,153.645L418.27,150.269L416.844,147.74L415.357,147.571L413.936,146.107L412.933,143.355L413.391,141.66L412.811,139.962L412.219,137.404L411.313,135.694L410.027,134.336L409.224,132.991L407.915,130.115L405.892,128.57L408.213,125.065L411.839,125.193L415.315,124.522L418.42,124.663L420.381,124.039L424.434,123.329L424.236,120.731L419.741,113.03L414.723,109.617L411.755,108.095L407.259,107.392L405.22,104.756L407.625,103.366L412.02,103.51L408.349,99.58L411.528,100.673L414.219,96.778L412.504,93.766L413.625,92.647L414.567,91.576L414.718,90.387L411.862,85.015L412.91,82.975L414.384,82.666L414.031,81.882L415.206,81.298L416.212,81.92L415.682,79.994L414.104,78.902L412.172,77.125L409.725,75.574L406.291,72.422L405.635,71.524L405.046,70.484L406.085,69.895L405.632,68.907L405.749,67.701L407.488,69.246L408.202,70.359L409.329,71.153L410.598,71.354L411.552,72.621L410.763,72.431L412.163,74.994L414.196,76.386L415.504,77.595L417.766,77.832L418.94,78.967L419.771,77.855L419.622,76.706L422.505,77.369L424.239,78.132L424.115,76.848L424.451,74.592L424.729,72.892L426.46,72.881L427.422,73.585L428.513,73.104L427.151,71.646L427.354,69.939L424.023,67.566L421.235,65.359L419.311,63.316L418.835,61.878L422.378,63.579L422.961,63.106L420.149,60.864L417.936,59.183L418.148,59.714L416.262,59.057L413.944,57.542L413.811,56.186L414.12,55.19L415.488,55.09L416.008,54.506L414.41,52.523L411.901,51.826L411.12,52.895L411.381,54.679L410.985,56.01L408.369,54.842L406.291,54.435L402.58,51.795L398.599,49.74L396.628,48.098L394.751,46.204L391.794,42.747L391.312,42.004L389.479,41.102L386.677,40.606L386.751,41.901L388.947,43.873L391.549,45.237L393.565,47.809L395.315,50.747L400.085,54.685L403.475,56.235L406.516,57.29L409.901,60.802L409.694,61.945L415.465,66.945L418.205,70.001L416.396,70.316L418.479,73.002L417.13,73.72L413.422,70.996L408.354,67.995L402.393,64.215L399.358,62.752L400.731,66.965L399.611,68.239L395.877,67.317L391.781,64.315L383.572,57.93L382.592,55.832L382.918,52.626L381.397,49.264L378.026,45.2L372.676,39.943L370.998,37.758L367.774,34.286L367.267,32.731L368.399,32.307L365.588,30.287L366.593,29.798L366.426,28.881L370.735,29.157L371.513,30.057L374.657,30.821L373.417,29.842L376.552,30.36L378.171,29.816L383.644,30.45L385.796,31.019L388.749,32.222L391.021,33.664L392.035,34.844L387.823,35.12L388.172,35.661L391.813,36.494L393.848,37.42L398.291,39.549L399.906,39.646L401.176,39.861L399.11,38.771L397.135,38.124L395.604,37.068L398.626,37.324L397.625,36.465L394.379,35.272L390.161,32.431L390.398,32.17L391.888,32.446L388.813,30.943L386.23,30.193L383.539,28.955L380.803,28.162L381.994,27.675L384.407,28.411L385.125,29.104L387.586,30.081L389.001,30.386L387.785,29.394L384.919,28.196L382.332,26.615L377.477,24.001L377.418,23.809L380.442,25.093L380.428,24.803L378.648,24.019L377.707,23.31L375.2,22.188L377.179,22.658L373.732,21.324L371.823,20.88L370.133,20.265L369.729,19.699L370.148,19.655L372.151,19.97L369.525,19.06L368.189,18.71L367.355,18.454L367.836,18.714L365.663,18.023L362.823,17.26L361.519,16.901L356.571,15.389L352.414,14.308L351.128,13.93L350.355,13.492L352.396,13.955L356.317,15.013L357.094,15.172L359.57,15.83L365.084,17.479L366.44,17.888L369.394,18.878L370.375,19.216L370.375,19.216L379.421,22.529L388.346,26.155L397.14,30.091L405.79,34.332L414.287,38.871L422.62,43.705L430.78,48.826L438.756,54.229L446.539,59.907L454.118,65.853L461.486,72.06L468.632,78.521L475.549,85.227L481.686,91.589L481.815,91.728L482.682,92.66L482.682,92.661L483.808,93.886L482.359,92.318L481.623,91.532L480.137,89.953L479.144,88.926L478.742,88.624L476.05,85.982L475.494,85.545L474.426,84.507L474.233,84.13L471.758,81.745L470.723,80.636L470.679,80.505L467.262,77.311L465.258,75.517L466.025,76.338L465.646,76.156L467.745,78.31L468.879,79.607L471.103,81.807L472.016,83.007L475.83,87.073L478.722,89.575L480.971,91.91L484.367,95.123L485.811,96.546L487.794,98.63L487.707,98.443L488.377,99.153L489.041,100.053L491.501,102.936L492.642,104.32L493.51,105.439L494.978,107.209L494.978,107.209L497,109.647L497.121,109.663L498.168,110.952L498.081,110.835L498.081,110.836L503.852,118.55L509.35,126.46L514.569,134.558L516.636,137.946L516.508,137.735L517.63,139.628L517.782,139.939L518.74,141.543L519.318,142.546L520.915,145.334L521.551,146.474L521.551,146.474L526.064,154.985L530.277,163.649L534.185,172.454L537.783,181.391L541.068,190.447L544.034,199.613L546.679,208.877L548.927,217.916L548.969,218.112L549.173,219.046L549.224,219.488L548.623,217.062L548.006,214.532L547.681,213.348L546.808,210.164L546.313,208.572L546.239,208.155L545.658,206.182L545.397,205.19L544.818,203.264L544.24,201.467L543.829,200.396L543.26,198.675L542.736,197.556L541.45,194.311L540.145,190.943L538.946,188.543L538.602,188.234L536.841,184.642L535.581,181.689L534.51,179.055L532.273,174.753L531.378,173.486L530.796,173.084L529.532,170.906L529.095,169.888L527.928,167.913L527.348,167.218L525.609,164.385L523.581,161.507L521.802,159.051L521.55,159.511L520.388,157.058L519.608,155.559L518.742,153.785L518.383,153.207L519.177,155.131L520.791,158.485L521.809,160.922L522.058,161.865L521.134,160.79L519.845,159.302L516.046,153.906L516.185,154.369L518.922,158.44L521.59,162.152L525.418,168.128L526.763,170.135L528.099,172.283L530.755,176.273L530.995,177.212L532.248,180.022L534.434,182.889L534.875,183.627L536.729,187.661L536.954,188.668L538.726,193.111L540.75,198.114L541.256,198.855L541.98,200.003L543.8,204.675L545.109,208.569L545.852,210.258L547.193,213.244L547.89,215.305L548.545,217.419L548.911,218.689L549.2,219.594L549.501,220.785L549.925,222.725L550.21,224.39L550.441,225.226L550.581,225.756L550.939,227.48L551.241,228.971L551.218,228.848L551.219,228.848L552.838,238.345L554.126,247.892L555.08,257.478L555.698,267.092L555.981,276.722L555.927,286.355L555.886,287.918L555.874,288.346L555.765,290.93L555.66,293.134L555.595,293.859L555.4,297.315L555.228,299.529L554.966,302.848L554.754,304.799L554.754,304.799L554.09,311.033L553.812,313.628L553.762,314.701L553.617,315.882L553.181,318.973L552.994,320.336L552.65,322.622L552.265,325.189L551.695,328.56L551.694,328.56L549.834,338.013L547.645,347.395L545.13,356.694ZM365.494,17.575L363.053,16.794L363.748,17.027L361.835,16.45L357.286,15.113L355.196,14.631L351.155,13.503L348.583,12.919L348.112,12.775L349.827,13.136L353.835,14.15L353.606,14.044L351.271,13.472L348.371,12.69L346.363,12.136L346.695,12.181L344.556,11.691L340.801,10.892L338.594,10.372L336.608,9.898L334.167,9.379L333.183,9.219L329.983,8.636L328.879,8.416L325.575,7.847L322.779,7.367L321.668,7.208L318.992,6.79L318.835,6.753L315.3,6.281L313.586,6.056L312.277,5.913L310.376,5.714L307.289,5.4L306.384,5.28L308.197,5.455L306.319,5.259L306.557,5.281L306.558,5.281L316.129,6.375L325.657,7.802L335.128,9.562L344.533,11.65L353.859,14.066L363.095,16.806ZM141.311,41.376L143.439,40.156L145.311,39.124L145.101,39.213L146.05,38.684L146.03,38.695L146.03,38.695L154.533,34.167L163.189,29.938L167.024,28.182L167.891,27.802L166.921,28.248L167.508,28.021L169.484,27.161L170.66,26.636L171.604,26.284L172.049,26.064L172.074,26.005L171.463,26.252L173.031,25.578L173.574,25.344L173.574,25.344L181.876,22.032L181.791,22.109L181.101,22.402L179.224,23.101L177.657,23.819L180.791,22.588L183.305,21.596L185.884,20.645L188.371,19.742L190.775,18.877L192.37,18.39L191.085,18.918L191.997,18.742L193.815,18.213L195.083,17.952L194.936,18.115L195.674,18.162L194.874,18.527L196.371,18.351L194.741,19.073L192.451,19.87L193.099,19.762L192.146,20.374L191.154,20.661L189.826,21.389L189.921,21.585L187.887,22.724L186.99,23.508L186.243,23.963L186.737,24.171L185.175,25.147L184.43,25.743L184.43,25.743L183.233,26.781L181.045,28.144L180.665,28.675L182.596,28.272L184.106,28.167L183.746,28.894L185.97,28.654L187.44,28.776L185.753,29.736L186.994,29.575L189.158,28.825L188.88,29.24L185.454,31.427L188.938,30.629L185.654,32.081L186.884,32.189L188.326,31.765L188.629,32.277L187.582,33.593L187.339,35.107L187.488,35.913L188.4,36.109L187.248,37.618L184.214,38.191L184.653,39.28L187.275,39.942L188.679,39.842L187.267,41.535L190.212,40.756L190.955,39.483L192.849,38.942L194.106,39.224L195.219,39.253L195.067,40.029L194.011,41.564L195.435,41.728L195.672,43.312L197.954,43.407L199.536,43.893L201.546,42.401L203.153,42.246L203.818,43.471L200.669,45.741L204.083,43.999L204.978,44.283L208.795,42.027L209.572,40.333L209.634,39.125L213.476,36.725L217.146,35.458L217.973,36.098L217.62,37.28L215.595,40.108L212.996,41.021L214.633,41.94L211.52,44.371L215.597,42.816L215.286,44.642L212.739,46.392L212.182,48.325L215.695,46.754L219.09,44.786L222.185,42.155L223.859,42.634L225.487,43.284L226.125,44.755L224.992,45.996L222.57,47.182L222.315,48.692L220.924,49.926L216.105,51.319L213.533,51.396L212.753,50.357L210.934,51.599L207.129,53.59L205.46,54.694L201.729,56.213L199.275,55.982L196.799,56.907L194.799,58.691L192.574,58.677L188.201,60.56L183.051,63.414L180.019,65.579L176.417,69.02L178.47,70.076L176.563,73.124L175.268,75.679L178.461,75.575L180.914,77.633L181.924,79.218L182.192,81.012L184.148,82.36L185.421,84.121L188.946,84.87L191.179,85.555L188.887,88.44L187.415,92.014L186.787,96.192L188.598,100.093L191.212,99.172L194.588,95.67L196.433,89.973L195.823,87.949L200.574,86.831L204.634,84.77L207.278,82.587L208.377,80.352L208.524,77.403L207.405,74.67L212.085,71.671L213.05,68.765L215.683,63.991L217.526,63.467L220.327,64.654L222.195,65.161L224.352,64.549L225.614,65.748L227.153,67.746L227.148,68.993L230.858,69.558L229.497,72.174L228.327,76.267L230.227,76.939L231.11,78.991L235.296,77.422L238.929,74.012L241.014,72.634L241.782,75.593L243.546,79.94L245.141,84.1L243.509,86.185L246.486,88.293L248.416,90.388L252.537,91.46L254.09,92.65L254.667,95.698L256.783,96.24L257.726,97.633L257.356,101.734L255.019,103.056L252.698,104.285L247.57,105.428L243.203,108.352L237.979,108.723L231.802,107.577L227.383,107.277L224.276,107.334L220.958,109.858L216.643,111.255L210.613,115.971L205.885,119.247L208.688,118.832L215.247,114.154L222.544,111.433L227.132,111.359L229.306,113.392L225.723,115.797L225.591,120.051L225.873,123.085L229.587,125.312L235.086,125.019L239.206,120.731L238.877,123.606L240.729,125.14L236.168,127.57L228.358,129.575L224.7,131.016L220.295,133.71L217.846,133.239L218.599,129.804L225.1,126.856L219.88,126.65L216.169,126.886L216.36,128.24L212.367,129.932L208.628,131.065L204.856,131.983L202.395,134.248L201.559,135.118L200.854,137.284L201.288,139.56L202.633,139.782L202.73,138.245L203.453,139.242L202.846,140.402L200.392,140.882L198.823,140.665L196.156,141.166L194.653,141.236L192.668,141.257L189.546,142.189L194.635,141.878L195.37,142.756L190.334,143.56L188.232,143.358L188.494,142.86L187.118,143.915L188.027,144.204L186.334,147.135L182.848,150.126L182.961,149.015L182.302,148.723L181.571,147.553L181.495,149.893L182.078,150.733L181.622,152.339L180.013,153.88L177.013,157.086L176.764,156.878L178.743,154.085L177.564,152.277L178.358,148.72L177.107,150.47L176.908,153.24L174.943,152.323L176.771,153.957L175.596,158.042L176.468,158.447L176.358,159.973L175.519,164.358L172.348,167.354L168.359,168.237L165.306,170.537L163.491,170.609L161.241,172.008L160.297,173.432L155.627,175.811L153.028,177.663L150.588,180.086L149.083,183.181L148.775,186.388L148.824,190.402L149.519,193.821L149,195.795L149.341,201.32L148.453,204.4L147.858,206.172L146.268,208.874L145.03,209.315L143.36,208.509L143.281,206.407L142.179,205.158L141.297,200.943L140.606,197.212L140.575,195.355L142.155,192.437L141.923,189.81L140.398,185.651L139.3,184.77L135.259,186.281L134.744,185.96L133.816,183.618L132.137,182.173L128.289,182.124L125.63,181.133L123.118,181.011L121.587,181.469L121.725,182.756L121.027,184.559L121.388,185.568L120.583,186.042L119.647,185.167L118.179,185.797L115.972,185.23L114.55,182.428L111.724,182.451L109.956,180.974L108.011,180.903L105.17,181.409L101.289,184.123L97.742,185.397L95.397,187.165L94.004,189.029L92.829,192.117L92.188,194.318L92.172,195.984L89.704,199.696L88.101,202.857L85.925,208.934L84.952,211.114L84.693,213.747L84.934,216.218L84.509,219.952L85.543,223.882L85.558,226.707L86.174,229.284L89.155,231.269L89.982,233.513L93.077,232.803L95.645,232.841L98.28,232.496L100.54,232.106L103.085,230.602L104.529,228.02L105.74,224.145L106.653,222.887L109.22,222.087L113.066,221.654L116.062,222.351L118.265,222.316L118.86,223.443L118.222,225.68L115.711,228.146L114.244,230.863L114.708,231.793L113.741,233.731L112.101,237.257L111.457,235.888L110.712,235.84L110.579,236.536L111.24,236.677L110.915,237.943L109.934,239.888L110.093,240.668L109.394,242.3L109.535,242.788L108.674,245.111L107.745,246.238L107.085,246.278L106.089,247.797L107.072,248.859L107.503,248.207L108.437,248.993L108.775,249.243L109.703,248.544L110.727,248.655L110.993,249.098L111.588,248.96L113.184,249.668L114.872,249.825L116.142,249.488L116.653,249.026L117.782,249.465L118.6,249.926L119.587,249.967L120.388,249.671L121.975,250.594L122.548,250.79L123.549,251.849L124.463,253.075L125.722,254.012L126.52,255.465L126.122,255.876L125.772,256.912L125.916,258.713L124.805,260.215L124.126,262.067L123.717,264.157L123.762,265.416L123.583,267.581L122.931,267.962L122.321,269.954L122.431,271.255L121.516,272.361L121.533,273.672L122.039,274.546L122.728,277.288L124.036,279.435L125.662,281.739L126.915,283.656L126.739,284.664L128.296,285.096L128.701,284.758L129.699,286.084L131.678,286.009L133.495,285.024L136.011,284.378L137.517,283.13L139.729,283.688L139.542,284.14L141.806,284.592L143.57,285.641L144.793,287.236L146.257,288.75L148.389,289.144L151.786,286.157L153.549,285.836L153.718,284.259L154.824,280.285L157.424,278.318L160.095,278.506L160.517,277.542L163.821,278.275L167.383,276.181L169.158,275.268L171.433,273.145L172.929,273.576L173.959,274.945L172.985,276.486L172.769,277.605L170.187,277.934L171.432,280.241L171.198,282.747L169.077,285.365L170.466,289.317L172.37,289.179L173.571,285.797L172.337,283.987L172.384,280.335L177.959,278.851L177.534,276.54L179.177,275.158L180.496,278.662L183.58,278.984L186.265,281.891L186.338,283.491L190.331,283.838L195.154,283.68L197.614,286.001L201.054,286.828L203.666,285.48L203.794,284.271L209.452,284.316L214.949,284.538L210.986,285.756L212.454,288.111L216.119,288.66L219.524,291.199L220.143,295.082L222.558,295.087L224.352,296.298L227.381,298.192L230.189,301.435L230.269,303.908L232.046,304.089L234.529,306.525L236.355,308.25L242.02,309.392L242.545,308.54L246.398,308.296L251.49,309.705L253.116,310.266L256.612,311.468L261.65,315.585L262.434,317.552L264.075,317.346L265.257,320L267.918,328.34L270.498,329.139L270.616,332.41L267.011,336.272L268.501,337.706L277.012,338.486L277.186,343.202L280.844,340.121L286.895,341.789L294.896,344.588L297.227,347.299L296.442,349.891L302.028,348.374L311.327,350.655L318.458,350.284L325.455,353.905L331.428,358.863L335.032,360.041L339.033,360.051L340.704,361.421L342.138,367.177L342.827,369.9L340.732,377.472L338.25,380.509L331.474,386.993L328.317,392.103L324.726,396.034L323.573,396.155L322.142,399.404L322.111,407.459L320.519,414.03L319.882,416.815L318.36,418.505L317.262,424.059L312.423,429.508L311.444,433.681L307.764,435.497L306.611,437.901L301.811,437.984L294.81,439.602L291.669,441.38L286.723,442.559L281.537,445.658L277.858,449.453L277.236,452.276L277.959,454.346L277.198,458.09L276.253,459.881L273.322,461.869L268.864,468.125L265.366,470.857L262.675,472.443L261.022,475.67L258.518,477.549L256.954,479.619L252.687,481.353L249.723,480.617L247.634,480.908L243.847,479.374L241.195,479.389L238.546,477.449L238.534,479.183L243.886,482.19L243.67,484.419L246.256,485.898L246.278,487.452L243.26,491.344L238.052,492.783L230.831,493.088L226.76,492.579L227.974,494.432L227.805,496.637L228.845,498.163L227.001,499.081L223.536,499.282L219.857,498.009L218.744,498.693L220.159,501.595L222.752,502.596L224.347,501.813L225.814,503.345L222.967,504.03L220.858,505.587L221.369,508.3L221.138,509.679L218.089,509.481L216.14,510.652L216.094,512.534L220.003,514.62L223.207,515.328L223.119,517.474L220.188,518.586L219.695,521.207L217.55,521.915L217.006,522.886L219.306,525.265L221.923,526.657L220.693,526.458L218.238,526.249L217.268,526.664L215.366,527.219L216.344,529.117L215.271,529.066L211.822,528.127L207.688,526.373L203.448,524.805L201.526,523.323L201.284,522.088L198.782,520.415L195.535,516.315L195.168,514.064L197.017,512.424L192.086,511.203L193.513,509.192L192.02,504.807L195.99,506.121L194.748,500.484L192.221,499.509L192.982,502.966L190.794,502.369L189.738,498.372L188.313,492.975L188.943,491.038L186.706,487.913L185.001,484.308L186.422,484.349L186.641,479.295L187.338,474.165L187.331,469.175L184.951,463.812L185.284,460.953L183.648,456.401L184.841,452.072L183.933,444.791L183.626,436.812L183.355,427.984L182.01,421.272L180.291,415.352L175.719,412.567L175.118,410.807L166.214,405.76L158.132,400.304L154.599,397.288L152.433,393.505L152.96,392.324L148.784,386.157L143.873,377.47L139.218,368.015L137.384,365.736L135.865,362.217L132.516,358.815L129.534,356.573L130.714,354.694L128.549,350.032L129.65,346.954L132.762,344.45L134.834,341.246L133.904,339.092L132.4,341.063L129.93,338.693L130.718,337.48L129.971,333.135L131.379,332.617L132.123,329.788L133.664,326.951L133.381,324.988L135.643,324.271L138.482,322.737L137.952,321.202L139.491,321.04L139.355,318.643L140.363,317.044L142.437,316.972L144.276,314.198L145.953,311.889L144.453,310.573L145.341,307.898L144.601,303.429L145.55,302.28L145.108,298.158L143.587,295.41L142.291,293.867L141.594,291.176L142.694,290.019L141.681,289.569L141.034,287.886L139.11,286.305L137.3,286.387L136.349,287.943L134.625,288.938L133.727,288.984L133.259,289.928L134.988,292.779L133.853,293.251L133.223,293.879L131.323,293.871L130.836,290.921L130.257,291.668L128.958,291.204L128.305,289.167L126.706,288.624L125.73,287.921L124.049,287.688L123.851,288.707L123.459,287.922L121.432,286.551L120.739,285.432L121.259,284.665L121.202,283.59L120.24,282.28L118.825,281.113L117.579,280.298L117.462,278.858L116.553,277.853L116.653,279.283L115.786,280.306L115.051,278.841L113.895,278.18L113.486,277.127L113.672,275.684L114.329,274.25L113.357,273.41L114.327,272.627L113.22,270.915L111.728,268.708L111.131,266.958L109.792,265.205L108.265,262.739L108.775,262.074L109.273,262.887L109.594,262.603L109.186,261.004L108.156,260.405L107.587,261.455L105.521,261.018L104.31,260.33L102.991,259.123L101.094,258.467L100.267,257.26L98.635,256.096L96.505,255.593L95.113,254.348L93.653,252.027L90.872,246.161L89.494,244.276L87.144,242.472L85.3,242.42L82.426,243.629L80.776,243.729L78.887,241.972L76.833,240.53L74.559,237.68L72.551,236.46L69.879,233.422L68.124,230.548L67.758,229.106L66.334,228.399L64.037,226.128L63.54,223.677L61.574,220.199L61.204,216.886L61.313,214.451L62.261,214.272L62.418,212.875L63.352,211.867L63.868,210.285L63.735,207.961L64.129,206.074L64.116,203.511L63.694,198.316L62.767,193.998L62.804,190.821L61.722,188.323L61.79,187.084L63.254,184.46L62.647,183.023L62.396,180.413L63.283,177.154L62.406,176.376L62.373,173.618L62.52,171.131L63.098,169.749L63.757,166.076L64.821,162.524L65.716,160.903L65.386,158.66L64.731,158.578L64.434,156.966L63.236,158.556L62.403,160.723L60.873,164.001L60.534,166.034L60.314,169.591L60.105,170.74L60.221,171.169L59.738,172.766L60.082,172.848L59.121,175.818L59.168,177.174L58.852,178.902L59.04,181.639L57.909,186.025L57.684,188.216L57.385,190.531L56.557,192.932L57.479,193.474L57.527,195.838L57.525,198.143L57.18,198.937L55.684,200.256L55.324,200.089L55.79,197.128L55.449,194.031L54.877,191.272L54.351,189.719L55.757,186.491L56.492,183.967L56.203,182.212L55.829,179.686L55.338,180.143L55.408,178.792L54.825,177.23L55.013,174.214L55.286,173.948L55.867,174.529L57.273,173.202L58.276,171.277L58.51,167.574L58.159,165.918L58.963,162.952L59.878,159.865L61.033,156.124L62.582,152.043L63.591,149.789L64.11,146.905L63.776,146.044L64.356,144.787L63.748,144.14L63.978,142.76L63.089,141.625L63.203,140.772L64.505,138.466L66.111,133.69L69.096,127.582L69.791,126.707L70.291,125.09L71.985,121.283L74.276,118.081L75.45,115.628L78.167,112.706L80.8,109.519L82.951,106.498L86.299,103.387L89.356,100.254L92.456,97.16L96.832,92.433L99.53,89.337L100.927,87.605L101.696,87.038L101.654,89.099L98.865,92.632L99.982,91.898L102.656,89.035L105.231,86.098L105.124,86.005L107.148,81.594L108.219,79.771L108.626,77.345L111.599,74.269L113.97,72.49L114.959,70.442L117.952,67.964L120.268,65.161L122.262,63.687L123.549,62.314L124.529,60.933L127.911,58.401L130.855,55.548L134.587,52.82L134.703,52.149L134.654,51.248L135.793,49.917L140.152,46.349L141.034,45.419L142.792,43.719L142.739,43.225L145.218,41.226L147.405,39.72L146.967,39.64L144.014,41.258L143.989,41.126L143.68,41.013L142.767,41.319L142.529,41.238L144.984,39.879L148.719,38.001L149.428,37.86L150.598,37.209L148.996,37.767L146.69,38.848L144.761,39.674L142.34,41.098L140.148,42.223L139.301,42.622L138.912,42.802L137.42,43.684L137.254,43.78L137.255,43.78ZM204.982,62.11L207.473,60.976L209.926,61.36L209.426,61.913L205.942,63.213L204.704,62.957ZM237.029,36.525L237.028,35.197L237.981,34.431L238.69,34.362L241.081,34.924L241.917,36.368L241.426,36.994L240.163,36.778L238.888,36.571L237.232,36.704ZM210.927,64.147L212.338,63.36L213.069,63.525L213.096,64.19L211.18,65.655L210.51,65.291L210.68,64.34ZM228.881,29.659L227.11,30.296L226.096,29.873L225.984,29.142L227.991,28.412L230.085,28.185L229.625,28.995ZM237.211,25.05L236.786,25.028L235.682,24.622L236.482,24.117L237.812,24.455L237.685,24.873ZM239.571,22.575L239.11,23.302L237.666,23.848L235.952,23.953L236.263,23.446L237.354,22.786L238.819,22.132L239.448,22.387ZM232.12,31.788L230.919,31.257L229.47,30.15L230.964,29.042L232.491,28.1L233.129,27.136L231.945,26.563L232.176,25.824L233.892,25.189L235.164,25.637L234.913,26.377L236.463,26.691L236.113,27.42L234.724,28.071L235.001,28.681L234.834,29.233L235.928,29.535L237.045,29.929L239.169,29.75L241.366,29.875L242.778,30.238L242.918,31.136L242.135,32.005L240.807,32.463L238.661,32.689L237.628,32.245L234.236,32.099ZM229.394,21.082L229.39,21.563L227.985,21.935L225.903,21.996L226.625,21.245L228.328,20.953ZM232.269,20.233L231.989,20.739L230.631,20.795L229.927,20.494L230.54,20.303L232.236,20.079ZM257.183,104.807L255.261,107.114L252.766,110.354L254.945,109.14L256.901,110.006L255.643,111.301L258.275,112.423L259.813,111.527L262.805,112.772L261.568,115.573L263.841,114.956L264.087,117.016L264.898,119.457L263.259,122.899L261.765,123.018L259.667,122.229L260.676,119.024L259.831,118.508L255.707,121.823L253.775,121.628L256.286,119.848L253.304,118.806L249.828,118.927L243.645,118.574L243.361,117.4L245.571,116.114L244.39,115.012L247.424,112.801L251.587,106.882L253.776,104.82L256.54,103.616L257.895,103.818ZM211.914,54.675L212.869,55.883L214.062,57.022L213.077,58.376L214.559,58.333L215.07,59.442L212.732,60.127L210.533,59.057L210.667,57.649L207.62,58.887L203.815,59.97L204.771,58.224L202.238,58.117L205.021,56.983L207.345,54.858L210.362,52.482L211.278,52.885L210.414,54.108L211.647,53.821ZM237.193,37.684L239.296,36.937L240.996,38.399L241.836,39.692L241.134,40.734L244.146,40.45L244.459,42.103L247.342,43.364L248.031,44.462L248.119,46.934L244.421,47.906L247.371,49.904L249.808,50.669L251.234,53.304L254.037,53.641L252.705,55.551L248.01,58.652L246.159,57.286L244.517,54.402L241.976,54.575L240.88,56.147L242.009,57.935L244.009,59.434L244.472,60.256L244.543,63.239L242.926,65.345L240.635,64.358L236.677,61.613L238.278,64.379L239.628,66.353L239.51,67.439L234.325,65.802L230.845,63.695L229.264,62.044L230.445,61.283L228.506,59.524L226.71,57.869L226.176,58.693L220.532,58.55L219.758,57.398L222.537,55.493L225.88,55.826L229.81,55.859L229.909,54.812L231.48,53.513L235.548,51.11L235.909,49.898L235.928,48.939L234.434,47.443L232.015,46.236L233.532,45.709L233.312,43.993L232.167,43.701L231.831,42.739L230.381,43.359L227.527,43.335L223.17,42.079L221.258,40.944L219.681,40.246L219.724,39.266L222.325,38.462L220.68,38.153L223.431,35.873L226.99,34.135L229.298,33.482L232.79,33.387L230.153,34.611L229.257,36.093L232.547,34.526L236.46,34.078L235.821,36.585L234.012,38.02ZM225.266,31.113L227.082,31.587L228.147,32.437L223.834,33.964L222.001,34.12L218.451,35.452L217.416,35.116L219.795,33.169L221.514,32.174L223.444,31.445ZM216.074,21.515L219.969,20.873L223.539,20.435L224.01,20.769L225.168,20.843L221.76,21.892L219.935,22.225L219.354,22.091L216.773,22.285L215.531,22.135ZM118.62,64.585L119.202,64.921L114.734,68.018L111.961,70.918L111.831,70.669L113.377,68.952L115.031,67.383L116.097,66.182L117.753,64.813L119.002,63.945ZM236.792,20.448L237.227,20.95L237.289,21.906L235.953,22.755L234.641,23.477L234.061,23.03L234.352,22.257L233.282,21.83L234.965,21.551L235.297,21.005ZM102.968,87.29L102.087,87.424L102.497,84.869L103.553,83.525L104.244,81.826L105.161,80.802L105.238,79.574L107.02,77.624L107.916,76.956L107.68,78.292L107.491,79.151L107.693,80.077L106.671,81.389L105.317,83.227L104.587,85.204ZM209.04,24.273L208.666,24.966L209.52,25.712L208.728,26.436L207.464,27.426L205.738,27.522L201.51,28.047L197.888,28.905L195.992,29.677L192.736,29.721L194.461,28.782L196.008,27.172L198.038,26.602L201.536,25.62L204.764,24.827L207.216,23.63ZM221.658,25.282L222.862,25.193L223.327,25.482L221.506,26.34L219.232,27.023L216.493,26.523L213.236,26.658L212.303,26.326L213.62,25.756L216.585,25.523L213.811,24.65L213.971,24.035L218.808,22.875L220.423,22.669L220.289,23.787L218.735,25.114L219.411,25.625L222.558,23.786L224.545,23.41L224.623,23.796L222.869,24.622ZM211.481,30.444L210.745,31.491L207.503,33.56L205.075,35.075L204.719,36.567L204.722,38.075L203.021,39.009L201.097,38.723L200.323,39.756L198.641,40.48L197.431,39.59L196.844,38.478L195.572,38.258L192.625,38.407L189.97,37.91L188.236,37.525L189.775,36.357L189.969,35.353L188.928,35.288L191.506,33.313L192.343,33.321L194.01,33.474L194.748,33.999L196.358,34.052L196.026,33.004L194.376,32.5L193.653,32.019L194.941,31.166L197.93,31.123L197.008,30.689L197.251,29.685L200.906,28.603L202.966,28.107L206.95,27.787L206.696,28.394L204.434,29.089L207.014,29.147L205.814,30.438L208.647,29.794L207.942,30.64L204.613,32.736L206.628,32.07L210.202,29.949L211.396,29.901ZM214.961,32.635L216.432,31.103L219.188,30.446L219.42,31.11L221.415,31.25L220.625,31.875L218.103,32.619L218.01,33.827L214.737,35.656L211.762,36.079L211.122,35.66L211.833,34.696L212.471,32.528L213.683,31.905ZM213.486,29.457L214.611,29.703L214.327,30.293L211.106,31.328L212.689,29.632ZM231.077,25.637L229.967,26.571L228.163,27.484L225.148,28.746L223.483,28.599L223.251,28.09L225.434,27.056L223.979,26.863L226.879,25.53L227.484,25.787L229.781,25.493L230.549,25.845ZM246.5,19.923L247.931,19.572L248.71,19.589L249.273,19.217L250.641,19.399L249.583,20.312L249.874,20.819L250.285,21.288L248.809,22.419L248.69,23.08L246.843,23.412L243.214,24.441L241.697,24.32L240.656,23.814L241.299,23.002L242.545,22.426L243.941,22.115L242.791,21.882L243.3,21.23L244.554,20.476ZM253.172,18.588L254.518,18.467L255.198,18.528L256.68,18.472L258.511,18.071L258.977,18.238L258.748,18.721L260.608,18.009L261.685,17.873L262.846,17.833L264.467,17.957L264.499,18.141L266.345,18.047L267.35,18.245L268.4,18.434L269.742,18.659L270.781,18.93L271.522,19.412L271.192,19.83L269.099,20.44L267.23,20.661L266.278,20.983L267.755,21.077L265.184,21.966L263.532,22.349L260.76,23.64L258.819,23.777L257.901,24.082L255.278,24.013L256.089,24.353L255.14,24.605L254.737,25.563L253.166,26.095L251.172,26.457L249.822,27.132L247.839,27.531L247.408,27.974L249.093,28.098L248.543,28.566L244.512,29.404L242.759,28.529L239.654,28.407L238.689,27.961L237.227,27.576L238.618,26.686L240.819,26.552L242.613,25.207L243.295,25.169L244.177,26.284L244.928,24.975L244.268,24.438L246.03,23.885L248.02,23.696L249.224,23.147L249.384,22.351L250.633,21.488L252.276,21.84L252.505,22.094L254.534,21.656L253.385,21.261L251.012,21.008L251.013,20.306L251.83,19.625L252.161,19.088ZM231.579,50.257L229.905,50.918L227.948,50.844L228.603,49.515L230.49,48.143L232.229,47.949L232.902,48.795L232.049,49.913ZM207.849,40.53L207.263,41.567L205.371,42.213L204.865,41.148L203.583,41.176L203.69,39.778L205.709,39.328L207.957,38.554L208.107,39.462L208.151,40.021ZM229.427,109.032L230.542,108.782L234.229,109.955L236.948,111.708L236.877,112.41L235.374,112.403L231.732,110.986ZM228.108,120.03L228.749,122.01L230.952,122.67L233.95,122.723L232.006,124.261L230.761,124.451L227.07,122.541L226.609,121.173ZM138.757,43.136L138.052,43.633L136.561,44.564L135.259,45.221L134.479,45.589L135.852,44.718L137.787,43.555L138.522,43.209ZM220.978,527.162L222.639,528.214L224.98,529.852L229.212,531.299L233.234,532.033L232.632,532.919L230.208,532.845L228.436,532.076L228.098,532.79L226.309,533.213L225.006,533.055L223.388,532.782L221.099,532.056L218.213,531.545L214.125,530.154L210.641,528.822L205.184,526.123L207.687,526.789L212.437,528.538L216.45,529.584L217.106,528.769L216.959,527.42L218.867,526.755ZM174.488,246.33L171.807,245.266L169.801,245.41L167.327,244.817L165.276,245.51L163.28,243.803L163.852,242.311L167.543,243.353L170.62,244.036L172.257,243.123L170.643,240.884L170.928,239.07L168.445,238.08L169.551,236.862L172.036,237.313L175.519,238.394L176.139,237.629L179.389,237.943L181.716,239.379L182.837,239.351L183.384,241.096L185.709,241.197L185.401,242.603L187.279,242.924L189.169,244.836L187.365,246.649L185.453,245.455L183.483,245.498L182.105,245.155L181.239,245.954L179.588,246.114L179.076,244.897L177.595,245.46L175.511,248.577L174.529,247.721ZM306.639,6.304L304.714,6.117L304.89,5.905L305.816,5.663L308.255,5.72L310.28,5.963L311.585,6.245L311.656,6.396L310.025,6.432L310.27,6.572ZM305.013,5.422L304.212,5.213L305.329,5.265L311.085,5.888L306.349,5.57L305.445,5.489ZM325.069,13.198L324.109,12.756L323.931,12.504L325.193,12.649L324.005,12.4L323.136,12.149L323.988,12.046L324.751,12.2L325.529,12.504L325.98,12.704L326.768,12.839L327.654,13.156L326.613,13.17L325.093,12.855ZM355.678,17.612L351.024,16.035L349.056,15.65L345.983,14.603L341.955,13.288L339.794,12.409L337.436,11.783L335.984,11.298L337.296,11.41L338.941,11.762L342.758,12.911L346.16,14.022L351.579,15.69L356.469,17.118L361.305,18.676L364.935,19.643L367.799,20.097L368.432,20.401L369.053,21.278L367.158,20.767L366.467,20.98L364.059,20.311L362.835,19.728L360.374,19.059L355.979,17.498ZM153.184,202.235L155.001,202.083L157.429,202.521L157.257,203.725L153.025,203.97ZM157.86,201.629L160.348,204.039L158.96,207.243L158.397,206.576L158.997,204.17L157.75,202.151ZM154.424,209.888L155.525,210.205L156.02,214.221L155.472,216.927L154.487,217.045L154.088,214.25L152.959,212.733ZM241.071,526.812L244.082,525.678L246.774,526.329L248.269,525.526L250.935,526.593L250.285,527.313L246.567,527.793L244.992,526.993L242.898,527.838ZM324.135,19.05L322.83,18.555L323.218,18.284L325.164,18.512L329.534,18.872L330.391,19.834L333.363,20.933L333.808,21.366L337.138,22.664L336.731,22.971L333.121,22.484L332.08,21.788L330.172,21.649L325.78,20.779L322.245,19.816L321.94,18.923L323.622,19.295ZM326.12,16.582L328.246,17.426L328.011,18.07L326.369,18.376L325.099,18.071L324.546,18.282L322.188,17.897L321.936,17.099L323.414,17.147L322.342,16.657L324.087,16.531ZM335.455,19.661L336.55,20.652L334.89,20.694L334.009,20.213L332.387,19.906L332.189,19.253L333.991,19.657ZM280.765,19.624L282.607,18.664L284.62,18.688L285.053,18.102L286.827,17.881L291.112,17.806L295.948,18.669L295.723,19.352L293.547,19.623L290.387,20.012L290.945,20.277L293.012,19.948L295.504,20.338L296.105,19.747L297.351,20.255L297.828,21.254L298.706,20.49L300.71,19.546L302.931,19.597L304.441,20.192L303.748,21.661L303.933,22.084L302.072,22.637L303.847,22.523L304.692,23.861L305.519,25.073L308.038,27.104L310.633,28.211L309.236,28.459L308.301,29.246L311.301,30.094L313.425,31.783L312.465,32.102L315.792,33.743L313.37,34.173L315.597,34.907L315.951,35.718L314.534,36.237L312.791,36.415L315.713,37.781L316.618,38.796L313.209,38.1L313.013,38.776L315.296,39.188L318.273,40.439L320.416,42.302L318.21,43.024L316.373,42.193L313.571,40.972L315.254,42.559L314.431,43.994L318.464,43.75L320.611,43.685L318.147,46.24L315.063,48.626L310.625,49.881L308.736,50.009L307.396,51.142L306.059,54.149L302.686,56.292L301.39,56.462L298.997,57.254L296.329,58.011L294.975,59.839L295.335,61.895L294.613,63.874L291.434,66.365L292.646,68.751L291.942,71.352L291.086,74.483L287.728,74.727L284.076,72.152L279.381,72.149L277.159,70.414L275.754,67.375L272.23,63.568L271.35,61.62L271.356,59L268.971,56.315L269.971,54.271L268.871,53.274L271.164,50.146L273.931,49.199L274.723,48.109L275.257,46.096L273.256,46.981L272.291,47.352L270.718,47.693L268.81,46.803L269.057,45.069L269.958,43.752L271.426,43.746L274.573,44.462L272.08,42.842L270.859,41.977L269.276,42.284L268.159,41.644L270.336,39.46L269.684,38.565L269.027,36.939L268.207,34.519L266.95,33.614L267.321,32.716L264.787,31.348L262.497,31.071L259.49,30.97L256.712,30.929L256.003,30.183L255.357,28.78L258.515,28.386L260.596,28.433L256.871,27.598L255.568,26.634L256.471,25.931L260.659,25.343L264.549,24.703L265.386,24.075L263.78,23.29L265.081,22.654L268.6,21.637L269.759,21.515L270.008,20.759L271.864,20.407L274,20.231L275.996,20.273L276.575,20.798L278.484,19.924L279.997,20.539L280.94,20.665L282.427,21.192L280.719,20.316ZM449.82,120.321L450.006,118.46L452.687,121.644L454.132,124.843L452.697,124.338L450.432,121.872ZM197.902,245.935L200.081,246.505L200.773,247.511L199.544,248.641L196.272,248.384L193.711,248.373L193.674,246.312L194.368,245.662ZM150.836,241.716L153.454,242.454L155.404,243.837L155.88,245.207L153.04,244.976L151.707,245.632L149.581,244.604L147.584,242.603L148.242,241.578L149.947,241.447ZM137.142,217.288L140.246,218.062L143.163,218.513L146.352,220.563L147.501,222.464L151.185,222.385L152.328,223.644L155.064,226.94L157.127,229.347L158.447,229.431L160.641,230.648L160.129,231.95L163.052,232.459L165.795,234.713L165.141,235.769L162.353,236.089L159.606,236.03L156.916,235.358L151.165,235.159L154.257,232.838L152.872,231.421L150.408,230.81L149.316,229.283L148.905,226.496L146.7,226.408L143.403,224.688L142.478,223.556L137.762,222.173L136.671,221.083L138.31,220.106L134.754,219.357L131.596,221.401L130.081,221.24L129.302,222.301L127.395,222.541L125.975,221.862L128.192,220.708L129.358,219.145L131.231,218.358L133.292,217.718L136.143,217.675ZM496.837,136.676L497.493,137.962L496.097,139.436L495.672,138.759L493.683,138.926L492.787,137.073L494.347,138.001L495.105,137.164L496.132,136.866L496.569,137.585ZM388.479,87.18L390.679,89.544L391.302,92.932L388.736,95.711L385.088,95.728L384.48,91.765L380.855,88.461L381.902,85.309L382.321,83.47L383.962,83.021L387.801,84.662ZM472.993,133.912L474.063,133.034L475.527,136.435L476.589,137.575L477.55,139.797L475.23,138.822L474.039,138.743L470.164,137.663L469.095,135.499L471.474,135.058ZM454.384,127.049L454.554,125.52L457.608,127.915L460.785,133.249L459.709,133.289L459.729,134.888L458.282,134.076L455.103,129.303L453.142,127.197ZM413.773,71.713L415.934,73.087L417.905,75.888L414.522,74.651L412.907,73.433ZM396.157,87.483L396.164,87.481L394.862,85.47L391.829,83.695L391.763,83.656L388.845,83.558L387.636,82.756L387.155,81.147L385.748,80.375L385.945,82.126L383.237,79.009L380.871,77.556L378.767,74.145L377.967,71.342L379.649,71.3L381.574,70.606L382.729,74.352L384.215,73.54L386.205,73.138L388.105,75.79L388.98,79.008L391.12,78.803L391.569,79.109L396.642,82.579L398.403,82.816L402.863,86.328L404.545,87.525L407.412,87.615L409.04,89.839L408.893,91.079L411.149,92.668L410.843,94.919L408.086,95.51L405.24,97.265L403.714,96.782L403.499,98.735L401.156,98.742L400.541,100.419L398.828,99.933L399.431,95.566L400.805,94.422L400.785,94.419L396.972,94.513L395.326,93.244L396.775,91.729L394.191,90.1L392.851,87.791ZM340.836,51.623L342.028,53.402L345.57,54.991L345.196,57.409L341.573,60.012L340.354,60.724L337.578,60.581L331.662,60.221L332.688,58.77L327.717,57.779L330.633,56.919L329.994,56.105L325.76,55.824L325.808,53.915L328.186,53.256L332.244,54.82L333.738,53.049L336.483,53.561L337.982,51.792ZM280.181,556L281.359,555.996L282.439,555.989L282.439,555.989ZM241.268,552.245L241.992,552.262L243.699,552.443L243.183,552.139L242.589,551.884L241.093,551.272L241.139,550.972L242.336,550.969L243.808,551.344L244.794,551.666L246.204,552.058L247.402,552.402L248.532,552.737L249.42,553.034L249.792,553.248L250.012,553.429L248.635,553.374L247.475,553.35L245.702,553.181L245.62,553.021L244.299,552.951L243.098,552.882L241.489,552.605L240.558,552.343ZM215.455,548.347L215.678,548.4L216.786,548.663L216.786,548.663ZM223.571,550.17L224.034,550.265L225.804,550.625L226.909,550.834L225.481,550.493L227.705,550.951L229.468,551.278L230.552,551.445L232.559,551.823L234.11,552.067L235.771,552.33L237.667,552.631L237.618,552.558L237.195,552.425L239.326,552.788L240.713,552.936L242.413,553.186L243.958,553.434L245.323,553.56L246.133,553.591L246.885,553.595L248.154,553.673L249.753,553.776L251.183,553.847L252.136,553.843L252.444,553.742L252.117,553.536L251.333,553.289L250.287,553.02L249.163,552.73L248.084,552.431L247.136,552.152L246.427,551.856L245.96,551.566L246.134,551.326L246.154,551.033L245.835,550.716L244.853,550.305L244.065,549.924L244.263,549.554L244.827,549.334L245.495,549.038L246.347,548.795L247.491,548.581L247.713,548.157L248.455,547.914L249.401,547.695L251.26,547.732L252.201,547.433L253.453,547.274L255.036,547.21L256.331,546.97L257.266,546.634L258.847,546.553L260.277,546.91L259.73,547.282L257.836,547.55L257.124,547.764L255.471,547.52L253.875,547.559L252.718,547.764L251.523,547.979L250.872,548.256L251.036,548.667L251.566,549.068L252.818,549.458L251.795,549.626L250.142,549.604L249.539,549.871L248.876,550.106L248.334,550.436L248.561,550.753L249.717,551.148L251.02,551.466L252.696,551.741L254.34,552.059L255.469,552.391L256.243,552.677L257.153,552.971L258.247,553.225L259.099,553.48L260.28,554.012L261.089,554.223L261.608,554.417L262.439,554.612L262.796,554.819L262.516,554.937L262.136,555.013L260.639,554.967L260.527,555.044L260.232,555.095L258.998,555.079L257.73,555.012L256.687,554.959L255.593,554.89L255.481,554.903L253.915,554.763L252.065,554.582L251.718,554.547L251.718,554.547L242.153,553.393L232.635,551.905ZM296.865,555.484L297.661,555.434L299.312,555.32L300.836,555.197L302.553,555.058L304.212,554.916L305.074,554.838L306.773,554.683L308.576,554.502L310.272,554.318L312.051,554.112L313.734,553.905L315.935,553.617L317.678,553.369L319.413,553.112L320.715,552.888L320.101,552.929L321.507,552.668L323.057,552.397L324.771,552.119L326.671,551.796L328.703,551.422L330.693,551.018L332.567,550.593L334.219,550.246L335.496,550.054L335.116,550.209L336.388,549.997L337.541,549.7L339.31,549.276L340.275,549.124L339.424,549.373L340.58,549.16L342.568,548.725L344.308,548.337L345.323,548.12L344.384,548.372L346.633,547.824L348.277,547.414L349.888,547.003L351.469,546.586L351.928,546.463L351.928,546.463L342.585,548.811L333.165,550.831L323.681,552.522L314.143,553.88L304.564,554.905ZM502.754,132.17L502.783,132.094L502.208,131.025L502.673,130.497L502.337,128.595L503.154,130.806L503.712,131.484L503.95,131.78L504.453,134.222L503.788,134.103L502.546,132.701ZM215.868,284.372L218.547,283.877L219.502,284.094L219.173,287.668L215.298,288.007L214.487,287.533L215.885,286.274Z" fill="#2e7d32" stroke="none"></path><path d="M258.518,477.549L257.265,475.616L258.915,474.035L256.415,471.644L253.068,469.645L248.66,467.28L247.151,467.345L242.749,464.466L240.127,464.756L245.137,460.01L249.586,456.58L252.314,455.137L255.774,453.155L255.698,450.145L253.416,447.901L251.317,448.588L252.021,446.399L252.482,444.129L252.363,441.992L250.748,441.248L249.149,441.841L247.519,441.627L246.902,440.103L246.263,436.48L245.363,435.267L242.322,434.099L240.566,434.825L235.868,433.902L235.743,428.446L234.268,426.132L235.604,425.339L235.011,422.982L236.135,421.218L236.729,417.978L235.501,415.343L232.97,414.072L232.381,412.392L232.909,409.966L224.195,409.435L222.126,404.381L223.446,404.369L223.283,402.509L222.306,401.211L221.963,398.694L219.242,397.281L216.374,397.183L214.413,395.817L211.284,394.786L209.401,393.056L204.287,392.031L199.124,387.774L199.31,384.826L198.654,383.079L198.937,379.758L193.081,380.118L190.81,381.629L187.026,383.145L186.13,384.417L183.858,384.338L180.559,383.698L178.137,384.259L176.113,383.578L175.898,376.806L172.496,379.133L168.658,378.669L166.844,376.122L163.97,375.588L164.743,373.741L162.151,370.758L160.111,366.491L161.191,365.772L161.081,363.841L163.623,362.776L163.064,360.259L164.1,358.765L164.322,356.653L169.213,353.983L172.787,353.414L173.355,352.768L177.377,353.33L179.139,340.725L179.218,338.702L178.509,335.949L176.525,334.072L176.545,330.642L179.061,330.075L179.963,330.636L180.118,328.841L177.508,328.139L177.471,325.169L186.234,325.967L187.753,324.45L188.995,326.043L189.873,328.904L190.729,328.381L193.229,331.053L196.794,330.989L197.695,329.599L201.117,328.711L203.036,328.051L203.585,326.078L206.902,324.923L206.662,323.912L202.75,323.271L202.143,320.239L202.398,317.06L200.35,315.697L201.22,315.307L204.629,316.128L208.291,317.534L209.649,316.479L213.012,315.916L218.256,314.391L220.008,312.653L219.411,311.273L221.86,311.175L222.92,312.324L222.275,314.391L223.887,315.19L224.921,317.448L223.594,319.078L222.801,323.089L223.983,325.545L224.307,327.76L227.201,330.102L229.534,330.426L230.049,329.517L231.551,329.373L233.707,328.617L235.252,327.411L237.886,327.899L239.035,327.767L241.623,328.231L242.057,327.28L241.272,326.309L241.761,324.949L243.681,325.429L245.935,324.999L248.665,326.072L250.745,327.1L252.232,325.846L253.301,326.069L253.951,327.416L256.248,327.122L258.101,325.354L259.583,321.867L262.434,317.552L264.075,317.346L265.257,320L267.918,328.34L270.498,329.139L270.616,332.41L267.011,336.272L268.501,337.706L277.012,338.486L277.186,343.202L280.844,340.121L286.895,341.789L294.896,344.588L297.227,347.299L296.442,349.891L302.028,348.374L311.327,350.655L318.458,350.284L325.455,353.905L331.428,358.863L335.032,360.041L339.033,360.051L340.704,361.421L342.138,367.177L342.827,369.9L340.732,377.472L338.25,380.509L331.474,386.993L328.317,392.103L324.726,396.034L323.573,396.155L322.142,399.404L322.111,407.459L320.519,414.03L319.882,416.815L318.36,418.505L317.262,424.059L312.423,429.508L311.444,433.681L307.764,435.497L306.611,437.901L301.811,437.984L294.81,439.602L291.669,441.38L286.723,442.559L281.537,445.658L277.858,449.453L277.236,452.276L277.959,454.346L277.198,458.09L276.253,459.881L273.322,461.869L268.864,468.125L265.366,470.857L262.675,472.443L261.022,475.67Z" fill="#a8d5a0" stroke="#7caa78" stroke-width="1.2"></path><circle cx="274.2324350276644" cy="412.44408989943395" r="12" fill="#c8945a"></circle><circle cx="274.2324350276644" cy="412.44408989943395" r="9" fill="#d9a76a"></circle></g><circle cx="280" cy="280" r="276" fill="url(#sphere-shade)" style="mix-blend-mode:multiply;pointer-events:none"></circle><circle cx="280" cy="280" r="276" fill="url(#sphere-hl)" style="pointer-events:none"></circle><circle cx="280" cy="280" r="276" fill="none" stroke="#c0c0b8" stroke-width="0.5"></circle></svg>